<svg xmlns="http://www.w3.org/2000/svg" viewBox="0 0 328.14 77"><defs><style>.cls-1{fill:#111011;stroke:#010101;stroke-miterlimit:10;stroke-width:0.75px;}.cls-2{font-size:28.92px;fill:#5d6b9a;font-family:GurmukhiSangamMN-Bold, Gurmukhi Sangam MN;font-weight:700;}</style></defs><g id="Layer_2" data-name="Layer 2"><g id="Layer_1-2" data-name="Layer 1"><path class="cls-1" d="M193,40.72V34.66l-2.1,3Zm-.34-1.08-1.35-2,1.35-1.95Z"/><path class="cls-1" d="M166.21,27.52h-1.48v2.95h1.48Zm-.34,2.62h-.8V27.86h.8Z"/><path class="cls-1" d="M181,30.47h1.49V27.52H181Zm.34-2.61h.81v2.28h-.81Z"/><path class="cls-1" d="M183.25,30.47h1.49V27.52h-1.49Zm.34-2.61h.81v2.28h-.81Z"/><path class="cls-1" d="M169.35,30.47h1.49V27.52h-1.49Zm.34-2.61h.81v2.28h-.81Z"/><path class="cls-1" d="M171.66,30.47h1.49V27.52h-1.49Zm.34-2.61h.81v2.28H172Z"/><path class="cls-1" d="M174,30.47h1.48V27.52H174Zm.34-2.61h.8v2.28h-.8Z"/><path class="cls-1" d="M185.51,30.47H187V27.52h-1.48Zm.34-2.61h.8v2.28h-.8Z"/><path class="cls-1" d="M188.48,40.72l2.1-3-2.1-3Zm.34-5,1.34,1.94-1.34,1.94Z"/><path class="cls-1" d="M166.3,40.72V34.66l-2.1,3ZM166,39.64l-1.35-2L166,35.74Z"/><path class="cls-1" d="M161.75,34.15,164,37.43l2.28-3.29v-.79h-4.55Zm.34-.46H166V34L164,36.84l-1.93-2.79Z"/><path class="cls-1" d="M161.75,40.72l2.09-3-2.09-3Zm.34-5,1.34,1.94-1.34,1.94Z"/><path class="cls-1" d="M167,30.47h1.48V27.52H167Zm.34-2.61h.8v2.28h-.8Z"/><path class="cls-1" d="M86.1,40.72V34.66l-2.1,3Zm-.34-1.08-1.35-2,1.35-1.95Z"/><path class="cls-1" d="M54.14,22.1a.66.66,0,1,0,.65.66A.65.65,0,0,0,54.14,22.1Zm0,1a.33.33,0,1,1,.31-.33A.32.32,0,0,1,54.14,23.09Z"/><path class="cls-1" d="M58.18,23.42a.66.66,0,1,0-.67-.66A.66.66,0,0,0,58.18,23.42Zm0-1a.33.33,0,0,1,.33.33.33.33,0,0,1-.33.33.33.33,0,0,1-.33-.33A.33.33,0,0,1,58.18,22.43Z"/><path class="cls-1" d="M50.22,22.1a.66.66,0,0,0,0,1.32.66.66,0,0,0,0-1.32Zm0,1a.31.31,0,0,1-.28-.33.28.28,0,1,1,.28.33Z"/><path class="cls-1" d="M41.66,23.5a.63.63,0,1,0,.64.63A.64.64,0,0,0,41.66,23.5Zm0,.92a.29.29,0,1,1,0-.58.29.29,0,0,1,.3.29A.29.29,0,0,1,41.66,24.42Z"/><path class="cls-1" d="M46.61,22.1c-.27,0-.49.29-.49.66s.22.66.49.66.49-.29.49-.66S46.88,22.1,46.61,22.1Zm0,1s-.15-.12-.15-.33.11-.33.15-.33.15.12.15.33S46.65,23.09,46.61,23.09Z"/><path class="cls-1" d="M56.59,27.44H55.24v3.19h1.35Zm-.34,2.85h-.67V27.78h.67Z"/><path class="cls-1" d="M58.85,27.44H57.51v3.19h1.34Zm-.34,2.85h-.66V27.78h.66Z"/><path class="cls-1" d="M59.36,40.72V34.66l-2.1,3ZM59,39.64l-1.35-2L59,35.74Z"/><path class="cls-1" d="M54.82,34.15l2.27,3.28,2.27-3.29v-.79H54.82Zm.34-.46H59V34l-1.93,2.8-1.93-2.79Z"/><path class="cls-1" d="M36.59,23.5a.63.63,0,1,0,.63.63A.63.63,0,0,0,36.59,23.5Zm0,.92a.28.28,0,0,1-.29-.29.28.28,0,0,1,.29-.29.28.28,0,0,1,.29.29A.29.29,0,0,1,36.59,24.42Z"/><path class="cls-1" d="M54.82,40.72l2.09-3-2.09-3Zm.34-5,1.34,1.94-1.34,1.94Z"/><path class="cls-1" d="M59.77,30.63h1.34V27.44H59.77Zm.34-2.85h.67v2.51h-.67Z"/><path class="cls-1" d="M1.35,34.15l2.27,3.28L5.9,34.14v-.79H1.35Zm.34-.46H5.56V34l-1.94,2.8L1.69,34.05Z"/><path class="cls-1" d="M12.78,9.27V7.74A2.61,2.61,0,0,0,12.78,9.27Z"/><path class="cls-1" d="M1.35,40.72l2.09-3-2.09-3Zm.34-5L3,37.69,1.69,39.63Z"/><path class="cls-1" d="M28.08,34.15l2.27,3.28,2.28-3.29v-.79H28.08Zm.34-.46h3.87V34l-1.94,2.8-1.93-2.79Z"/><path class="cls-1" d="M16.3,23.5a.63.63,0,1,0,.64.63A.63.63,0,0,0,16.3,23.5Zm0,.92a.29.29,0,1,1,.3-.29A.29.29,0,0,1,16.3,24.42Z"/><path class="cls-1" d="M5.9,40.72V34.66l-2.1,3Zm-.34-1.08-1.35-2,1.35-1.95Z"/><path class="cls-1" d="M21.38,23.5a.63.63,0,1,0,.63.63A.63.63,0,0,0,21.38,23.5Zm0,.92a.29.29,0,0,1-.3-.29.3.3,0,0,1,.59,0A.29.29,0,0,1,21.38,24.42Z"/><path class="cls-1" d="M28.08,40.72l2.1-3-2.1-3Zm.34-5,1.34,1.94-1.34,1.94Z"/><path class="cls-1" d="M32.63,40.72V34.66l-2.1,3Zm-.34-1.08-1.35-2,1.35-1.95Z"/><path class="cls-1" d="M26.45,23.5a.63.63,0,1,0,0,1.25.63.63,0,1,0,0-1.25Zm0,.92a.29.29,0,1,1,0-.58.28.28,0,0,1,.29.29A.29.29,0,0,1,26.45,24.42Z"/><path class="cls-1" d="M31.52,24.75a.63.63,0,1,0-.64-.62A.63.63,0,0,0,31.52,24.75Zm0-.91a.29.29,0,1,1,0,.58.29.29,0,1,1,0-.58Z"/><path class="cls-1" d="M81.55,40.72l2.09-3-2.09-3Zm.34-5,1.34,1.94-1.34,1.94Z"/><path class="cls-1" d="M117.18,25.64h1.07V24.13h-1.07Zm.34-1.17h.4v.83h-.4Z"/><path class="cls-1" d="M115.43,25.64h1.08V24.13h-1.08Zm.34-1.17h.4v.83h-.4Z"/><path class="cls-1" d="M108.28,34.15l2.27,3.28,2.28-3.29v-.79h-4.55Zm.34-.46h3.87V34l-1.94,2.8-1.93-2.79Z"/><path class="cls-1" d="M113.69,25.64h1.07V24.13h-1.07Zm.34-1.17h.39v.83H114Z"/><path class="cls-1" d="M118.93,25.64H120V24.13h-1.07Zm.34-1.17h.39v.83h-.39Z"/><path class="cls-1" d="M120.68,25.64h1.07V24.13h-1.07Zm.34-1.17h.39v.83H121Z"/><path class="cls-1" d="M139.56,40.72V34.66l-2.1,3Zm-.34-1.08-1.35-2,1.35-1.95Z"/><polygon class="cls-1" points="135.36 34.7 135.87 35.39 135.36 34.65 135.36 34.7"/><path class="cls-1" d="M112.83,40.72V34.66l-2.1,3Zm-.34-1.08-1.35-2,1.35-1.95Z"/><path class="cls-1" d="M135,40.72l2.09-3-2.09-3Zm.34-5,1.34,1.94-1.34,1.94Z"/><path class="cls-1" d="M125.24,14.43V12.7A2.53,2.53,0,0,0,125.24,14.43Z"/><path class="cls-1" d="M84.84,24.75a.63.63,0,1,0-.64-.62A.63.63,0,0,0,84.84,24.75Zm0-.91a.29.29,0,1,1,0,.58.29.29,0,1,1,0-.58Z"/><path class="cls-1" d="M108.28,40.72l2.1-3-2.1-3Zm.34-5L110,37.69l-1.34,1.94Z"/><path class="cls-1" d="M74.7,23.5a.63.63,0,1,0,.64.63A.64.64,0,0,0,74.7,23.5Zm0,.92a.29.29,0,0,1-.3-.29.29.29,0,0,1,.3-.29.29.29,0,1,1,0,.58Z"/><path class="cls-1" d="M62.22,22.1a.66.66,0,1,0,.66.66A.65.65,0,0,0,62.22,22.1Zm0,1a.33.33,0,1,1,.32-.33A.32.32,0,0,1,62.22,23.09Z"/><path class="cls-1" d="M66.14,22.1a.66.66,0,0,0,0,1.32.66.66,0,0,0,0-1.32Zm0,1a.33.33,0,0,1,0-.66.31.31,0,0,1,.28.33A.31.31,0,0,1,66.14,23.09Z"/><path class="cls-1" d="M69.75,22.1c-.27,0-.49.29-.49.66s.22.66.49.66.49-.29.49-.66S70,22.1,69.75,22.1Zm0,1s-.15-.11-.15-.33.11-.33.15-.33.15.12.15.33S69.79,23.09,69.75,23.09Z"/><path class="cls-1" d="M79.77,23.5a.63.63,0,1,0,.63.63A.63.63,0,0,0,79.77,23.5Zm0,.92a.29.29,0,0,1-.29-.29.28.28,0,0,1,.29-.29.28.28,0,0,1,.29.29A.28.28,0,0,1,79.77,24.42Z"/><path class="cls-1" d="M100.06,23.5a.63.63,0,1,0,.63.63A.63.63,0,0,0,100.06,23.5Zm0,.92a.29.29,0,1,1,.29-.29A.29.29,0,0,1,100.06,24.42Z"/><path class="cls-1" d="M95,23.5a.63.63,0,1,0,.64.63A.63.63,0,0,0,95,23.5Zm0,.92a.29.29,0,0,1-.29-.29.3.3,0,0,1,.59,0A.29.29,0,0,1,95,24.42Z"/><polygon class="cls-1" points="135.02 34.15 135.36 34.65 135.36 34.42 138.54 34.42 138.54 34.69 136.95 36.84 135.87 35.39 137.29 37.44 139.56 34.15 139.56 33.35 135.02 33.35 135.02 34.15"/><path class="cls-1" d="M89.91,23.5a.63.63,0,1,0,0,1.25.63.63,0,1,0,0-1.25Zm0,.92a.29.29,0,0,1-.29-.29.28.28,0,0,1,.29-.29.29.29,0,1,1,0,.58Z"/><path class="cls-1" d="M81.55,34.15l2.27,3.28,2.28-3.29v-.79H81.55Zm.34-.46h3.87V34l-1.94,2.8-1.93-2.79Z"/><rect class="cls-1" x="273.57" y="26.18" width="0.52" height="2.15"/><path class="cls-1" d="M288.13,30h1.67v.79h.51l.23-5.32h-2.41Zm.34-4.19h1.72L290,29.77a.35.35,0,0,0-.22-.08h-1.33Z"/><path class="cls-1" d="M290.76,27.78l-.12,2.8,1.27-1.47Zm.3.87.41.46-.45.52Z"/><polygon class="cls-1" points="291.23 30.82 291.23 30.15 290.64 30.82 291.23 30.82"/><path class="cls-1" d="M288.13,24.32h2.46l0-.9a13.33,13.33,0,0,1-2.5.69Zm2.14-.42V24H290Z"/><polygon class="cls-1" points="292.5 25.5 291.54 25.5 292.02 25.98 292.5 25.5"/><polygon class="cls-1" points="292.12 18.07 292.82 18.88 292.89 18.85 292.82 17.26 292.12 18.07"/><path class="cls-1" d="M291.31,25.5h-.45l-.07,1.71,1.12-1.12Zm-.12.35.24.24-.27.27Z"/><path class="cls-1" d="M290.78,27.44v.11L292,29l.85-1v-1l-.85-.84Zm1.75-.25v.7l-.51.59-.84-1,.84-.83Z"/><path class="cls-1" d="M292.12,23.24l.75.91V22.39l-.1.06Z"/><path class="cls-1" d="M291,21.75v.13l.43.54c.49-.22,1-.46,1.42-.71v-.13l-.85-1Zm1.39-.17-.86.42-.14-.17.61-.7Z"/><polygon class="cls-1" points="292.13 20.5 292.87 21.34 292.87 20.12 292.57 19.99 292.13 20.5"/><polygon class="cls-1" points="292.13 26.09 292.87 26.83 292.87 25.5 292.73 25.5 292.13 26.09"/><polygon class="cls-1" points="291.33 30.03 292.71 30.03 292.02 29.23 291.33 30.03"/><polygon class="cls-1" points="292.87 29.97 292.87 28.25 292.12 29.11 292.87 29.97"/><path class="cls-1" d="M292,23.36l-.79,1h1.57Zm0,.53.07.09H292Z"/><path class="cls-1" d="M291.85,22.9l.17.21.39-.48Z"/><polygon class="cls-1" points="291.48 11.28 291.44 12.22 291.91 11.73 291.48 11.28"/><path class="cls-1" d="M291.92,23.24,291.7,23l-.74.32,0,1H291Z"/><path class="cls-1" d="M292.55,11.07V11l-.53-.61-.53.61v.12l.54.55Zm-.53-.21.12.14-.12.13-.13-.13Z"/><polygon class="cls-1" points="291.54 9.79 291.5 10.7 291.92 10.22 291.54 9.79"/><polygon class="cls-1" points="291.61 8.09 291.57 9.09 291.92 8.55 291.61 8.09"/><path class="cls-1" d="M292.49,9.56V9.4L292,8.7l-.46.7v.16l.47.54ZM292,9.31l.1.16-.1.11-.1-.11Z"/><polygon class="cls-1" points="291.92 13.53 291.41 12.84 291.36 13.91 291.63 13.91 291.92 13.53"/><path class="cls-1" d="M292.62,12.59v-.13l-.59-.62-.6.62v.13l.6.81Zm-.6-.26.21.22-.21.28-.21-.28Z"/><polygon class="cls-1" points="291.67 15.44 291.3 15.44 291.25 16.62 291.92 15.76 291.67 15.44"/><path class="cls-1" d="M292.41,19.92l-.35-.15a.31.31,0,0,1-.18-.28.29.29,0,0,1,.18-.27l.61-.27-.65-.76-.89,1v.13l.89,1Zm-.85-.58,0-.05.11-.13A1.34,1.34,0,0,0,291.56,19.34Zm.46-.63.1.12-.2.08a.56.56,0,0,0-.15.1Z"/><path class="cls-1" d="M291,22.12l0,.5.32-.13Z"/><path class="cls-1" d="M292.41,7.82V7.63L292,7.07l-.39.56v.19l.39.59ZM292,7.67l0,.06,0,.07,0-.07Z"/><path class="cls-1" d="M292.81,17v-.14l-.79-1-.79,1V17L292,18Zm-.79-.59.41.52-.41.47-.41-.47Z"/><polygon class="cls-1" points="291.22 17.26 291.14 18.97 291.92 18.07 291.22 17.26"/><path class="cls-1" d="M291.12,19.59,291,21.5l.88-1Zm.3.85,0,0,0,.06Z"/><path class="cls-1" d="M299.51,18.83a19.06,19.06,0,0,0-2.88,1.4v4.05a10,10,0,0,0,2.88-1Zm-.34,4.23a9.18,9.18,0,0,1-2.2.79V20.42a21.47,21.47,0,0,1,2.2-1.1Z"/><rect class="cls-1" x="320.59" y="16.81" width="0.47" height="0.86"/><rect class="cls-1" x="321.36" y="16.81" width="0.55" height="0.86"/><path class="cls-1" d="M313.23,18.61l1,.76v.17H314v1.05l2.06.31V18.47h-2.85Zm2.51.2v1.7l-1.38-.2v-.45a.35.35,0,0,0,.23-.32v-.17a.31.31,0,0,0-.14-.26l-.39-.3Z"/><rect class="cls-1" x="311.47" y="21.25" width="0.25" height="1.41"/><path class="cls-1" d="M311.66,17.21c-1,.33-2.41.8-3.87,1.39l1.5.89v-.12l2.34-1.77ZM309.18,19l-.63-.37c.78-.3,1.51-.56,2.14-.78Z"/><rect class="cls-1" x="311.47" y="26.47" width="0.25" height="1.41"/><rect class="cls-1" x="322.93" y="16.81" width="0.4" height="0.86"/><path class="cls-1" d="M322.15,34.15l2.27,3.28,2.27-3.29v-.79h-4.54Zm.34-.46h3.87V34l-1.94,2.8-1.93-2.79Z"/><path class="cls-1" d="M327.52,31V28.89a.34.34,0,0,0-.34-.34h-.68a.34.34,0,0,0-.34.34v.56H326l-2-9.35V16.47a.34.34,0,0,0,.05-.17v-.19a.34.34,0,0,0-.24-.32A2.48,2.48,0,0,0,322,13.9v-.23l.8-.28.07,0h0l0,0a.3.3,0,0,0,.11-.14.19.19,0,0,0,0-.08.19.19,0,0,0,0-.08V13s0-.06,0-.08v0l0,0h0v0l0,0-.07-.06h0l-.07,0-.8-.28v-.07a.41.41,0,0,0-.81,0V13.9a2.49,2.49,0,0,0-1.77,1.89.35.35,0,0,0-.23.32v.19a.41.41,0,0,0,0,.18h0V20.1l-.56,2.64V21.25a.33.33,0,0,0-.29-.33l-.51-.08V16.31a.64.64,0,0,0-.45-.61v-3a.64.64,0,0,0-1.28,0l-.88.39-.08,0h0a.65.65,0,0,0-.1.09.24.24,0,0,0-.08.1s0,0-.05.07l0,.07a.23.23,0,0,0,0,.07.11.11,0,0,0,0,.05.22.22,0,0,0,0,.08.19.19,0,0,0,0,.08.09.09,0,0,0,0,.05.12.12,0,0,0,0,.07.09.09,0,0,0,0,.05.45.45,0,0,0,.11.17l.05,0,.16.1h0l.89.39v1h-3.08V12.74a.65.65,0,0,0-1.29,0l-.88.39-.08,0h0l-.1.09a.36.36,0,0,0-.08.09l-.05.08h0s0,0,0,0a.29.29,0,0,0,0,.09.39.39,0,0,0,0,.13.59.59,0,0,0,0,.14s0,.05,0,.08,0,0,0,0a.75.75,0,0,0,.08.14l0,0,0,0a.51.51,0,0,0,.13.09h0l.88.39v1l0,0h0a.33.33,0,0,0-.34.3v.05l-1.72.35-.13,0c-.69.15-1.4.3-2.13.43v-.1a.34.34,0,0,0-.34-.3h0V13.93a.63.63,0,0,0-.3-.54.67.67,0,0,0-.34-.1.86.86,0,0,0-.27.05l-1,.44a.65.65,0,0,0-.38.59.63.63,0,0,0,.38.57l.61.27v1.92a25.72,25.72,0,0,1-3.36.22,9.06,9.06,0,0,0-2,.22V15a.62.62,0,0,0-.29-.53.61.61,0,0,0-.35-.11.58.58,0,0,0-.26.06l-1,.44a.63.63,0,0,0-.37.57.65.65,0,0,0,.38.59l.61.27V18a17.69,17.69,0,0,0-2.2,1v0a.41.41,0,0,0-.42-.41H296a.41.41,0,0,0-.42.41v.84l-.71.43-.54.32-.5.29V19.06a.63.63,0,0,0-.28-.53l-.14-3.17.21-.51v0a.39.39,0,0,0,0-.13V14a.41.41,0,0,0-.32-.4l-.46-10.76A1.36,1.36,0,0,0,292,.38a1.38,1.38,0,0,0-1.39,1.36,1.38,1.38,0,0,0,.55,1.09l-.46,10.76a.42.42,0,0,0-.33.4v.7a.35.35,0,0,0,0,.13v0l.21.51-.31,7.17a15.11,15.11,0,0,1-1.86.56V18.92a.41.41,0,0,0-.42-.41h-.56a.41.41,0,0,0-.42.41v2.43a.58.58,0,0,0-.18-.17.62.62,0,0,0-.35-.1.58.58,0,0,0-.26.05l-1,.44a.64.64,0,0,0-.38.58.62.62,0,0,0,.38.57l.62.28v.38h-1.15l-.81-.25v-4.2a.41.41,0,0,0-.42-.41H283a.42.42,0,0,0-.37.22V12.94a.34.34,0,0,0-.34-.34H282a.34.34,0,0,0-.34.34v.93a3.5,3.5,0,0,0-1.52,1.25,1.79,1.79,0,0,1-1.3.8l-.16,0a.34.34,0,0,0-.24.24,2.61,2.61,0,0,0,.41,2.05.33.33,0,0,0,.24.14h0a.35.35,0,0,0,.22-.08,6.84,6.84,0,0,1,2.31-1.21v5a7.9,7.9,0,0,1-.86-.54l-.21-.14V18.86a.6.6,0,0,0-.3-.53.62.62,0,0,0-.34-.1.7.7,0,0,0-.25.05l-1,.45a.62.62,0,0,0-.38.57.64.64,0,0,0,.37.58l.62.27v.55a17.93,17.93,0,0,0-5.35-1.47V16.42a.63.63,0,0,0-.29-.53.64.64,0,0,0-.35-.1.75.75,0,0,0-.26.05l-1,.44a.61.61,0,0,0-.38.58.64.64,0,0,0,.38.58l.6.27v1.36a10.47,10.47,0,0,0-1.84-.89c-.88-.56-1.8-1.1-2.71-1.59V14.27a.65.65,0,0,0-1.29,0l-.88.39-.11.06-.07,0a.76.76,0,0,0-.1.13l0,0a.54.54,0,0,0-.05.11h0s0,.05,0,.08a.73.73,0,0,0,0,.24h0c-.6-.27-1.21-.52-1.82-.74v-.35a.64.64,0,0,0-1.28-.1,30.32,30.32,0,0,0-9.51-1.57h-2.73c-8.42,0-15.4,3.74-19.77,6.88a41.87,41.87,0,0,0-7.55,6.87.34.34,0,0,0,0,.35.33.33,0,0,0,.18.17v2.38h-.34V14.54a.34.34,0,0,0-.34-.34H222a.34.34,0,0,0-.34.34v.89A2.79,2.79,0,0,0,220,16.8c-.32.83-.65,1-1.1,1.09a.33.33,0,0,0-.25.35,7,7,0,0,0,.38,1.84.39.39,0,0,0,.25.2h.06a.31.31,0,0,0,.24-.1,8,8,0,0,1,2.09-1.44V29.25h-.46V25.46a.34.34,0,0,0-.34-.33h-7.41a.34.34,0,0,0-.34.33V28h-4.86a.34.34,0,0,0-.34.34V31h-1.49V25.78h.08a.35.35,0,0,0,.33-.24.33.33,0,0,0-.13-.37l-6.95-4.86a.31.31,0,0,0-.19-.06h-9.68V19h.1a.34.34,0,0,0,.34-.34v-.13a.33.33,0,0,0-.18-.3A18.58,18.58,0,0,1,185.62,15a.34.34,0,0,0-.26-.12h-.81a1.51,1.51,0,0,0,0-2.85V10.48a.52.52,0,0,0-1,0v0H183a.53.53,0,0,0-.45.25.52.52,0,0,0,0,.51l0,.08,0,.07a.51.51,0,0,0,.44.78h.08a1.51,1.51,0,0,0,.33,2.66h-.81a.34.34,0,0,0-.26.12,18.58,18.58,0,0,1-4.55,3.24.33.33,0,0,0-.18.3v.13A.34.34,0,0,0,178,19h.1v1.26H168.4a.31.31,0,0,0-.19.06l-7,4.86a.33.33,0,0,0-.13.37.35.35,0,0,0,.33.24h.08V31H126V11.28a.56.56,0,0,0-1.12,0v.86a1.73,1.73,0,0,0-1,.89.87.87,0,0,1-.86.5.65.65,0,0,0-.59.54,2.52,2.52,0,0,0,.07,1.27.47.47,0,0,0,.48.31,3,3,0,0,0,1-.29,8,8,0,0,1,.93-.34V31h-1.26V22.1a.34.34,0,0,0-.34-.34H102.36V19.7a.34.34,0,0,0-.34-.34H97.23V18.25a.34.34,0,0,0-.34-.34H70.21c-3.53-3.9-9-4.81-10.33-5a1.77,1.77,0,0,0-.67-1.29c-.31-.18-.31-.33-.31-.62a.53.53,0,0,1,0-.17.5.5,0,0,0-.18-.64.59.59,0,0,1-.09-.11.55.55,0,0,0-.49-.32.56.56,0,0,0-.49.31c0,.06-.06.1-.1.12a.23.23,0,0,0-.07.07.47.47,0,0,0-.13.5.41.41,0,0,0,0,.08v0a.35.35,0,0,1,0,.13c0,.29,0,.44-.31.62a1.74,1.74,0,0,0-.67,1.29c-1.32.16-6.81,1.07-10.33,5H19.47a.34.34,0,0,0-.34.33v1.12H15v-3h.16A.34.34,0,0,0,15.5,16v-.24a.33.33,0,0,0-.22-.31c-.28-.11-.78-.4-.88-.68a1.67,1.67,0,0,0-1-1V6.56a.49.49,0,0,0-1,0v.57a2.66,2.66,0,0,0-1.19.7,2.12,2.12,0,0,1-1.37.91h0A.34.34,0,0,0,9.51,9a5.39,5.39,0,0,0,0,1.23.51.51,0,0,0,.55.45,3.45,3.45,0,0,0,1.13-.33A8,8,0,0,1,12.44,10v3.77a1.62,1.62,0,0,0-1,1c-.11.3-.64.58-.88.68a.33.33,0,0,0-.22.31V16a.34.34,0,0,0,.34.33h.16V31H.71a.33.33,0,0,0-.33.33v2a.33.33,0,0,0,0,.17v8.42a.34.34,0,0,0,.34.33h.59a.34.34,0,0,0,.34-.33v-.61l1.93-2.79,1.94,2.8v.6a.34.34,0,0,0,.34.33h.58a.34.34,0,0,0,.34-.33V33.69H27.16v8.25a.34.34,0,0,0,.34.33h.58a.34.34,0,0,0,.34-.33v-.61l1.93-2.79,1.94,2.8v.6a.34.34,0,0,0,.34.33h.59a.33.33,0,0,0,.33-.33V33.69H53.89v8.25a.34.34,0,0,0,.34.33h.59a.34.34,0,0,0,.34-.33v-.61l1.93-2.79L59,41.34v.6a.34.34,0,0,0,.34.33H60a.34.34,0,0,0,.34-.33V33.69H80.62v8.25a.34.34,0,0,0,.34.33h.59a.34.34,0,0,0,.34-.33v-.61l1.93-2.79,1.94,2.8v.6a.34.34,0,0,0,.34.33h.58a.34.34,0,0,0,.34-.33V33.69h20.34v8.25a.34.34,0,0,0,.34.33h.58a.34.34,0,0,0,.34-.33v-.61l1.93-2.79,1.94,2.8v.6a.34.34,0,0,0,.34.33h.59a.33.33,0,0,0,.33-.33V33.69h20.34v8.25a.34.34,0,0,0,.34.33H135a.34.34,0,0,0,.34-.33v-.61l1.93-2.79,1.93,2.8v.6a.34.34,0,0,0,.34.33h.59a.34.34,0,0,0,.34-.33V33.69h20.33v8.25a.34.34,0,0,0,.34.33h.59a.34.34,0,0,0,.34-.33v-.61L164,38.54l1.94,2.8v.6a.34.34,0,0,0,.34.33h.58a.34.34,0,0,0,.34-.33V33.69h20.34v8.25a.34.34,0,0,0,.34.33h.58a.34.34,0,0,0,.34-.33v-.61l1.93-2.79,1.94,2.8v.6a.34.34,0,0,0,.34.33h.58a.34.34,0,0,0,.34-.33V33.69h20.34v8.25a.34.34,0,0,0,.34.33h.59a.34.34,0,0,0,.34-.33v-.61l1.93-2.79,1.93,2.8v.6a.34.34,0,0,0,.34.33h.59a.34.34,0,0,0,.34-.33V33.69H241v8.25a.34.34,0,0,0,.34.33H242a.34.34,0,0,0,.34-.33v-.61l1.93-2.79,1.94,2.8v.6a.33.33,0,0,0,.33.33h.59a.34.34,0,0,0,.34-.33V33.69h20.34v8.25a.34.34,0,0,0,.34.33h.58a.34.34,0,0,0,.34-.33v-.61L271,38.54l1.94,2.8v.6a.34.34,0,0,0,.34.33h.58a.34.34,0,0,0,.34-.33V33.69h20.34v8.25a.34.34,0,0,0,.34.33h.59a.34.34,0,0,0,.34-.33v-.61l1.93-2.79,1.93,2.8v.6a.34.34,0,0,0,.34.33h.59a.34.34,0,0,0,.34-.33V33.69h20.33v8.25a.34.34,0,0,0,.34.33h.59a.34.34,0,0,0,.34-.33v-.61l1.93-2.79,1.94,2.8v.6a.33.33,0,0,0,.33.33h.59a.34.34,0,0,0,.34-.33V33.63a.35.35,0,0,0,.15-.28v-2A.34.34,0,0,0,327.52,31Zm-.09,2.35h-.15v8.59h-.59v-.7L324.42,38l-2.27,3.28v.71h-.59V33.35h-21v8.59H300v-.7L297.69,38l-2.27,3.28v.71h-.59V33.35h-21v8.59h-.58v-.7L271,38l-2.27,3.28v.71h-.58V33.35h-21v8.59h-.59v-.7L244.22,38,242,41.23v.71h-.59V33.35h-21v8.59h-.59v-.7L217.49,38l-2.27,3.28v.71h-.59V33.35h-21v8.59H193v-.7L190.75,38l-2.27,3.28v.71h-.58V33.35h-21v8.59h-.58v-.7L164,38l-2.27,3.28v.71h-.59V33.35h-21v8.59h-.59v-.7L137.29,38,135,41.23v.71h-.59V33.35h-21v8.59h-.59v-.7L110.55,38l-2.27,3.28v.71h-.58V33.35h-21v8.59H86.1v-.7L83.82,38l-2.27,3.28v.71H81V33.35H60v8.59h-.59v-.7L57.09,38l-2.27,3.28v.71h-.59V33.35h-21v8.59h-.59v-.7L30.35,38l-2.27,3.28v.71H27.5V33.35h-21v8.59H5.9v-.7L3.62,38,1.35,41.23v.71H.76V33.35H.71v-2H11.19V16h-.5v-.24s.88-.34,1.08-.87a1.24,1.24,0,0,1,1-.87V9.64h-.11c-.83,0-2.1.74-2.61.74-.12,0-.2,0-.21-.15a4.54,4.54,0,0,1,0-1.14h0a2.41,2.41,0,0,0,1.63-1,2.76,2.76,0,0,1,1.27-.67V6.56a.14.14,0,0,1,.14-.14.14.14,0,0,1,.15.14V14a1.25,1.25,0,0,1,1,.87c.2.53,1.08.87,1.08.87V16h-.5V19.7h4.81V18.25H46.31c3.88-4.41,10.48-5,10.48-5s.05-1,.53-1.3A.87.87,0,0,0,57.8,11a.72.72,0,0,0,0-.24l0-.09a.17.17,0,0,1,0-.18l0,0c.19-.14.19-.36.38-.36s.18.22.38.36,0,.24,0,.54a.87.87,0,0,0,.48.91c.48.27.53,1.3.53,1.3s6.6.6,10.49,5H96.89V19.7H102v2.4H123.3v9.22h1.94V14.63c-.75,0-1.81.68-2.24.68-.08,0-.14,0-.16-.09a2.19,2.19,0,0,1,0-1.1.29.29,0,0,1,.27-.25,1.25,1.25,0,0,0,1.16-.71,1.45,1.45,0,0,1,1-.77V11.28a.22.22,0,0,1,.44,0v20h36.2V25.44h-.42l6.94-4.86h10V18.65H178v-.13a18.85,18.85,0,0,0,4.65-3.32h1.19v-.59a1.19,1.19,0,0,1-1-1.17,1.2,1.2,0,0,1,1-1.17v-.41H183a.18.18,0,0,1-.15-.08.17.17,0,0,1,0-.18l.15-.25-.15-.24a.17.17,0,0,1,0-.18.16.16,0,0,1,.15-.09h.79v-.36a.18.18,0,0,1,.18-.18.18.18,0,0,1,.17.18v1.79a1.2,1.2,0,0,1,1,1.17,1.19,1.19,0,0,1-1,1.17v.59h1.19A18.85,18.85,0,0,0,190,18.52v.13h-.44v1.93h10l6.94,4.86h-.42v5.88h2.17v-3h5.2V25.46h7.41v4.13H222V18.29A7,7,0,0,0,219.36,20a7.15,7.15,0,0,1-.36-1.73,1.75,1.75,0,0,0,1.34-1.3A2.69,2.69,0,0,1,222,15.66V14.54h.3V29.59h1v-3h-.21s10.92-13.61,27.05-13.61h2.73a29.8,29.8,0,0,1,9.65,1.63l.19-.09v-.21a.31.31,0,0,1,.61,0v.58a35.59,35.59,0,0,1,3.75,1.63V16L266,15.51h0l-.07-.06h0a.59.59,0,0,1,0-.08h0a.13.13,0,0,1,0-.06.13.13,0,0,1,0-.1.2.2,0,0,1,0-.07h0a.08.08,0,0,1,0,0l0-.05.06,0,0,0,1.09-.49v-.21a.31.31,0,0,1,.61,0v2.52c1,.54,2,1.11,2.89,1.69a10.31,10.31,0,0,1,1.92.94l.42,0v-2l-.8-.36a.28.28,0,0,1-.18-.27.29.29,0,0,1,.18-.28l1-.43a.31.31,0,0,1,.13,0,.3.3,0,0,1,.16.05.29.29,0,0,1,.14.25v3.1a17.37,17.37,0,0,1,6,1.73V19.94l-.81-.36a.32.32,0,0,1-.18-.28.29.29,0,0,1,.18-.27l1-.44a.25.25,0,0,1,.12,0,.29.29,0,0,1,.3.29v2.75l.35.23a9.94,9.94,0,0,0,1.4.83v-6a6.92,6.92,0,0,0-2.87,1.37,2.33,2.33,0,0,1-.37-1.77,2.34,2.34,0,0,0,1.67-1A3.51,3.51,0,0,1,282,14.08V12.94h.3v9.87l.63.27V18.92a.08.08,0,0,1,.08-.08h.56a.09.09,0,0,1,.08.08v4.43c.35.13.72.25,1.1.36h1.54v-.93l-.82-.36a.32.32,0,0,1-.18-.27.3.3,0,0,1,.18-.27l1-.44.13,0a.3.3,0,0,1,.16.05.29.29,0,0,1,.14.25v2l.57-.07V18.92a.08.08,0,0,1,.08-.08h.56a.09.09,0,0,1,.08.08V23.5a13.72,13.72,0,0,0,2.53-.74L291,15.3l-.24-.58V14a.09.09,0,0,1,.08-.08H291l.49-11.26a1,1,0,0,1-.56-.91,1,1,0,0,1,2.09,0,1,1,0,0,1-.55.91L293,13.91h.22a.08.08,0,0,1,.08.08v.73l-.24.58.15,3.46.13,0a.31.31,0,0,1,.14.26v2.32c.52-.29,1-.61,1.55-.9l.88-.52v-1a.09.09,0,0,1,.08-.08h.56a.08.08,0,0,1,.08.08v.62a17,17,0,0,1,2.88-1.34V16l-.82-.36a.32.32,0,0,1-.17-.28.31.31,0,0,1,.17-.27l1-.44.12,0a.24.24,0,0,1,.16.05.27.27,0,0,1,.14.25v3a9,9,0,0,1,2.33-.32,25.76,25.76,0,0,0,3.7-.26V15l-.81-.35a.3.3,0,0,1-.18-.27.3.3,0,0,1,.18-.28l1-.44a.28.28,0,0,1,.13,0,.33.33,0,0,1,.16.05.33.33,0,0,1,.14.26v3.41l.29-.05,0-.47.05.45c.92-.15,1.79-.34,2.63-.52.66-.14,1.3-.28,2-.39v-.05a.5.5,0,0,1,0-.13l0-.13v.1A.33.33,0,0,1,312,16h.14V14.46L311.09,14h0l-.07-.05h0a.22.22,0,0,1-.05-.08h0a.13.13,0,0,0,0-.06.13.13,0,0,1,0-.1.13.13,0,0,0,0-.06h0s0,0,0,0,0,0,0-.06l.05,0,0,0,1.08-.48v-.22a.31.31,0,0,1,.61,0V16h3.76V14.46L315.45,14h0l-.08-.05h0a.24.24,0,0,1-.06-.08h0a.13.13,0,0,1,0-.06s0,0,0,0,0,0,0-.05a.13.13,0,0,1,0-.06h0l0,0a.13.13,0,0,1,0-.06l.05,0s0,0,0,0l1.09-.48v-.22a.3.3,0,1,1,.6,0V16h.15a.29.29,0,0,1,.3.3v4.82l.8.12V26l1.24-5.83V16.39l-.06-.09v-.19h.17s.31-1.86,1.83-1.91V12.28a.06.06,0,0,1,.06-.06.07.07,0,0,1,.07.06v.31l1,.36h0l0,0h0l-1,.36v.77c1.52.05,1.82,1.91,1.82,1.91h.18v.19l-.06.09v3.75l2,9.43v.22h.85v-.9h.68v2.43h.25Z"/><path class="cls-1" d="M326.69,40.72V34.66l-2.09,3Zm-.33-1.08-1.35-2,1.35-1.95Z"/><path class="cls-1" d="M306.75,23.1h.7V21.76h-.7Zm.34-1h0v.67h0Z"/><rect class="cls-1" x="322.21" y="16.81" width="0.47" height="0.86"/><path class="cls-1" d="M322.15,40.71l2.09-3-2.09-3Zm.34-5,1.34,1.94-1.34,1.94Z"/><rect class="cls-1" x="319.93" y="16.81" width="0.4" height="0.86"/><path class="cls-1" d="M295.42,40.71l2.09-3-2.09-3Zm.34-5,1.34,1.94-1.34,1.94Z"/><path class="cls-1" d="M300,40.72V34.66l-2.1,3Zm-.34-1.08-1.35-2,1.35-1.95Z"/><path class="cls-1" d="M295.91,25.5H293.5l.19,4.53h2.22Zm-.34,4.19H294l-.17-3.85h1.72Z"/><path class="cls-1" d="M295.42,34.15l2.27,3.28L300,34.14v-.79h-4.54Zm.34-.46h3.86V34l-1.93,2.8-1.93-2.79Z"/><path class="cls-1" d="M295.91,20.65l-.57.34-1.86,1.08v2.25h2.43ZM295.57,24h-1.75V22.26c.51-.29,1.07-.61,1.7-1l.05,0Z"/><path class="cls-1" d="M299.51,23.93a9.57,9.57,0,0,1-.91.39h.91Z"/><path class="cls-1" d="M298.19,26.73h1.32V25.5h-2.88V30h1.56Zm-.34,0v3H297V25.84h2.2v.55h-1A.34.34,0,0,0,297.85,26.73Z"/><path class="cls-1" d="M300.11,24.32h.33v-1l-.33.24Z"/><path class="cls-1" d="M308.74,17.58c-.48.1-1,.19-1.53.28l0,.31C307.76,18,308.26,17.76,308.74,17.58Z"/><path class="cls-1" d="M300.11,18.63v4.2a2.35,2.35,0,0,0,.33-.3V18.92a.09.09,0,0,1,.08-.08h.56a.08.08,0,0,1,.08.08v2.82a18.25,18.25,0,0,1,5-3.1V18a27.5,27.5,0,0,1-3.7.25A8.27,8.27,0,0,0,300.11,18.63Zm5.69-.2A20,20,0,0,0,301.5,21V18.92a.48.48,0,0,0-.07-.24,6.86,6.86,0,0,1,1-.07,27.93,27.93,0,0,0,3.36-.21Z"/><path class="cls-1" d="M306.92,18.28l.05-.38-.22,0v.45l0,0Z"/><path class="cls-1" d="M306.75,28.06h.7V26.73h-.7Zm.34-1h0v.67h0Z"/><path class="cls-1" d="M301.16,22.63v4.1h3.17V20.22A11.61,11.61,0,0,0,301.16,22.63Zm.34.12A10.4,10.4,0,0,1,304,20.81v5.58H301.5Z"/><rect class="cls-1" x="300.11" y="25.5" width="0.33" height="1.22"/><polygon class="cls-1" points="292.02 13.66 291.83 13.91 292.2 13.91 292.02 13.66"/><path class="cls-1" d="M246.49,40.72V34.66l-2.09,3Zm-.33-1.08-1.35-2,1.35-1.95Z"/><path class="cls-1" d="M250.62,30.48h1.87v-4.3h-1.87Zm.34-4h1.19v3.62H251Z"/><path class="cls-1" d="M255.86,30.48h1.87v-4.3h-1.87Zm.34-4h1.19v3.63H256.2Z"/><path class="cls-1" d="M242,34.15l2.27,3.28,2.27-3.29v-.79H242Zm.34-.46h3.87V34l-1.94,2.8-1.93-2.79Z"/><path class="cls-1" d="M248,30.48h1.87v-4.3H248Zm.34-4h1.19v3.62h-1.19Z"/><path class="cls-1" d="M263.9,28.33h1.86V26.18H263.9Zm.34-1.82h1.18V28h-1.18Z"/><path class="cls-1" d="M245.38,30.48h1.87v-4.3h-1.87Zm.34-4h1.19v3.62h-1.19Z"/><path class="cls-1" d="M268.68,34.15,271,37.43l2.28-3.29v-.79h-4.55Zm.34-.46h3.87V34L271,36.84,269,34.05Z"/><rect class="cls-1" x="266.67" y="26.18" width="0.08" height="2.15"/><path class="cls-1" d="M271.32,26.18h-1.87v2.15h1.87ZM271,28h-1.19V26.51H271Z"/><path class="cls-1" d="M273.23,40.72V34.66l-2.1,3Zm-.34-1.08-1.35-2,1.35-1.95Z"/><path class="cls-1" d="M268.68,40.71l2.1-3-2.1-3Zm.34-5,1.34,1.94L269,39.63Z"/><path class="cls-1" d="M273,26.18h-.74v2.15H273ZM272.62,28h-.06V26.51h.06Z"/><rect class="cls-1" x="268.26" y="26.18" width="0.28" height="2.15"/><path class="cls-1" d="M253.24,30.48h1.87v-4.3h-1.87Zm.34-4h1.19v3.63h-1.19Z"/><path class="cls-1" d="M199.47,30.47H201V27.52h-1.48Zm.34-2.61h.8v2.28h-.8Z"/><path class="cls-1" d="M242,40.71l2.09-3-2.09-3Zm.34-5,1.34,1.94-1.34,1.94Z"/><path class="cls-1" d="M215.22,40.72l2.09-3-2.09-3Zm.34-5,1.34,1.94-1.34,1.94Z"/><path class="cls-1" d="M197.16,30.47h1.48V27.52h-1.48Zm.34-2.61h.8v2.28h-.8Z"/><polygon class="cls-1" points="291.68 6.58 291.65 7.33 291.92 6.93 291.68 6.58"/><path class="cls-1" d="M192.53,30.47H194V27.52h-1.48Zm.34-2.61h.8v2.28h-.8Z"/><path class="cls-1" d="M194.85,30.47h1.48V27.52h-1.48Zm.34-2.61h.8v2.28h-.8Z"/><path class="cls-1" d="M201.78,30.47h1.48V27.52h-1.48Zm.34-2.61h.8v2.28h-.8Z"/><path class="cls-1" d="M231.79,28.33h1.87V26.18h-1.87Zm.34-1.81h1.19V28h-1.19Z"/><path class="cls-1" d="M234.57,28.33h1.87V26.18h-1.87Zm.34-1.81h1.19V28h-1.19Z"/><path class="cls-1" d="M237.35,28.33h1.87V26.18h-1.87Zm.34-1.81h1.19V28h-1.19Z"/><path class="cls-1" d="M215.22,34.15l2.27,3.28,2.27-3.29v-.79h-4.54Zm.34-.46h3.86V34l-1.93,2.8-1.93-2.79Z"/><path class="cls-1" d="M222,18V16A2.76,2.76,0,0,0,222,18Z"/><path class="cls-1" d="M229,28.33h1.87V26.18H229Zm.34-1.81h1.19V28h-1.19Z"/><path class="cls-1" d="M219.76,40.72V34.66l-2.1,3Zm-.34-1.08-1.35-2,1.35-1.95Z"/><polygon class="cls-1" points="292.27 4.54 292.25 4.16 292.12 4.34 292.27 4.54"/><polygon class="cls-1" points="292.16 2.81 291.88 2.81 292.02 3.04 292.16 2.81"/><polygon class="cls-1" points="292.22 3.38 292.2 3.04 292.11 3.2 292.22 3.38"/><polygon class="cls-1" points="292.6 12.22 292.56 11.28 292.13 11.73 292.6 12.22"/><polygon class="cls-1" points="292.54 10.7 292.5 9.79 292.12 10.22 292.54 10.7"/><polygon class="cls-1" points="292.39 7.33 292.36 6.58 292.12 6.93 292.39 7.33"/><polygon class="cls-1" points="292.47 9.09 292.42 8.09 292.11 8.55 292.47 9.09"/><polygon class="cls-1" points="292.33 5.83 292.3 5.26 292.12 5.53 292.33 5.83"/><polygon class="cls-1" points="291.74 5.26 291.71 5.83 291.92 5.53 291.74 5.26"/><polygon class="cls-1" points="291.83 3.04 291.82 3.38 291.93 3.2 291.83 3.04"/><polygon class="cls-1" points="292.29 4.99 292.28 4.82 292.02 4.47 291.75 4.82 291.75 4.99 292.02 5.39 292.29 4.99"/><polygon class="cls-1" points="292.35 6.31 292.34 6.13 292.02 5.67 291.7 6.13 291.69 6.31 292.02 6.79 292.35 6.31"/><polygon class="cls-1" points="292.24 3.91 292.24 3.71 292.02 3.36 291.8 3.71 291.8 3.91 292.02 4.21 292.24 3.91"/><polygon class="cls-1" points="291.78 4.16 291.77 4.54 291.92 4.34 291.78 4.16"/><path class="cls-1" d="M280.2,23.4c.54.08,1.12.14,1.75.19v-.25a12.17,12.17,0,0,1-1.75-1Zm.34-.44.32.19-.32,0Z"/><path class="cls-1" d="M282.25,23.47v.14l.39,0Z"/><path class="cls-1" d="M282,16.39v-2A2.79,2.79,0,0,0,282,16.39Z"/><path class="cls-1" d="M282.25,29h.63V24.25l-.63,0Z"/><path class="cls-1" d="M280.2,29H282v-4.8c-.62-.05-1.2-.11-1.75-.19Zm.34-4.6,1.07.11v4.16h-1.07Z"/><path class="cls-1" d="M273.57,20.19l.21.18a10.26,10.26,0,0,0,5.82,2.93V21.94a15.58,15.58,0,0,0-6-1.79Zm5.69,1.94v.77a9.69,9.69,0,0,1-4.69-2.27A14.22,14.22,0,0,1,279.26,22.13Z"/><path class="cls-1" d="M284.59,24.31l-1,0v0h1Z"/><path class="cls-1" d="M279.6,26.12V23.9a12.33,12.33,0,0,1-3.14-.95A37.49,37.49,0,0,1,279.6,26.12Zm-.34-1.94v1.06c-.35-.38-.8-.86-1.35-1.39A13.32,13.32,0,0,0,279.26,24.18Z"/><path class="cls-1" d="M287.41,24.31v-.09l-.32,0Z"/><polygon class="cls-1" points="292.17 15.44 291.87 15.44 292.02 15.63 292.17 15.44"/><polygon class="cls-1" points="292.12 15.76 292.79 16.62 292.74 15.44 292.37 15.44 292.12 15.76"/><path class="cls-1" d="M188.48,34.15l2.27,3.28L193,34.14v-.79h-4.55Zm.34-.46h3.87V34l-1.94,2.8-1.93-2.79Z"/><rect class="cls-1" x="286.84" y="25.5" width="0.57" height="4.53"/><path class="cls-1" d="M286.24,30.54v-5H283.6V29h1.55v1.83h1.34A.28.28,0,0,1,286.24,30.54Zm-.34-.05h-.41V29a.34.34,0,0,0-.34-.33h-1.21V25.84h2Z"/><polygon class="cls-1" points="292.4 13.91 292.68 13.91 292.63 12.84 292.12 13.53 292.4 13.91"/><text class="cls-2" transform="translate(80.42 63.04) scale(1.1 1)">ODAK 2022</text></g></g></svg>