<?xml version="1.0" encoding="utf-8"?>
<!-- Generator: Adobe Illustrator 25.2.1, SVG Export Plug-In . SVG Version: 6.00 Build 0)  -->
<svg version="1.1" id="Layer_1" xmlns="http://www.w3.org/2000/svg" xmlns:xlink="http://www.w3.org/1999/xlink" x="0px" y="0px"
	 viewBox="0 0 189 87.3" style="enable-background:new 0 0 189 87.3;" xml:space="preserve">
<style type="text/css">
	.st0{clip-path:url(#SVGID_2_);}
	.st1{display:none;}
	.st2{display:inline;fill:#010101;}
	.st3{display:none;fill:#010101;stroke:#FFFFFF;stroke-miterlimit:10;}
	.st4{display:none;fill:#010101;}
	.st5{fill:#010101;stroke:#FFFFFF;stroke-miterlimit:10;}
	.st6{display:none;fill:#FFFFFF;}
</style>
<g>
	<defs>
		<polyline id="SVGID_1_" points="0.5,86.8 0.5,-14.7 188.5,-14.7 188.5,86.8 		"/>
	</defs>
	<clipPath id="SVGID_2_">
		<use xlink:href="#SVGID_1_"  style="overflow:visible;"/>
	</clipPath>
	<g class="st0">
		<path class="st1" d="M11.8,18c0.3-0.3,0.3-0.7,0-1c0.4-0.3,0.1-0.7,0.2-1c0.2,0.3-0.2,0.8,0.2,1c-0.3,0.3-0.3,0.7,0,1
			c0,0.1,0,0.3,0,0.5c0.5,1.5,1,3,1.5,4.5c0,0.1,0.1,0.1,0.1,0.3L14,22l0,0v2.8c0,0.8,0.2,1.7,0.5,2.4l0.1-1h0.1c0,0.7,0,1.4,0,2.1
			s0,0.6,0.6,0.6v6.5h-0.4v13.8H9.2V35.4H8.8v-6.5h0.6v-2.7h0.1l0.1,1h0.1c0.2-0.6,0.4-1.2,0.5-1.8c0.1-0.9,0-1.9-0.1-2.8
			c0-0.2,0.1-0.5,0.2-0.7v1.1l0,0c0-0.1,0.1-0.1,0.1-0.2c0.5-1.5,1-3,1.5-4.5C11.8,18.3,11.8,18.1,11.8,18z M14,32.2
			c0-1-0.8-1.9-1.9-1.9s-1.9,0.8-1.9,1.9c0,1,0.8,1.9,1.8,1.9C13.1,34.1,14,33.3,14,32.2C14,32.2,14,32.2,14,32.2z"/>
		<g id="layer1" class="st1">
			<path id="path3098" class="st2" d="M30.6,53.8c0-0.3,0-0.3-0.1-0.4c0,0,0,0,0-0.1h-0.2c-1,0.1-1.9,0.1-2.9,0h-0.2
				c0,0,0,0-0.1,0.3v0.2 M26.6,53.9c0,0,0-0.1,0-0.1c0,0,0,0,0-0.1h-0.2c-1.8-0.4-3.4-1.1-4.9-2.2l-0.1-0.1l0,0l-0.1,0.1
				c0,0-0.1,0.1-0.1,0.1c-0.1,0.2-0.2,0.3-0.3,0.4c0,0-0.1,0-0.3,0h-0.2h-0.1c-0.1,0-0.2-0.1-0.2-0.2c0-0.1,0-0.1,0-0.2
				c0-0.1,0-0.1,0-0.2c0.1-0.2,0.2-0.3,0.4-0.4c0,0,0.1,0,0.1-0.1c0-0.1,0-0.2,0-0.3c0-0.1,0-0.1-0.2-0.3S20,50,19.8,49.8l0,0h-0.1
				c0,0-0.1,0-0.1,0.1L19.4,50c0,0-0.1,0.1-0.1,0.1c-0.1,0.1-0.2,0.2-0.4,0.2c-0.2,0-0.3-0.1-0.4-0.2c-0.1-0.1-0.2-0.2-0.2-0.3
				c0-0.2,0.1-0.3,0.3-0.4c0.1-0.1,0.2-0.1,0.3-0.1H19v-0.1c0-0.1,0-0.1,0-0.2V49l-0.1-0.1c-0.2-0.3-0.5-0.7-0.6-1
				c0,0-0.1-0.1-0.1-0.1l0,0c-0.1,0.1-0.2,0.2-0.4,0.3l-0.1,0.1h-0.2c-0.2,0-0.3,0-0.4-0.2c0-0.1-0.1-0.2,0-0.3c0-0.1,0-0.2,0.1-0.3
				c0.1-0.1,0.3-0.2,0.4-0.2c0,0,0,0,0.1-0.1v-0.1c0,0,0-0.1,0-0.1l0,0l-0.1-0.2c-0.1-0.3-0.2-0.6-0.3-0.9c0-0.2-0.1-0.3-0.1-0.3
				l-0.1,0.1c-0.1,0.1-0.2,0.2-0.3,0.2c-0.1,0-0.1,0-0.2,0c-0.1,0-0.2,0-0.2,0c-0.1,0-0.2-0.1-0.2-0.2c-0.1-0.1-0.1-0.3,0-0.4l0-0.1
				c0-0.1,0.1-0.2,0.2-0.2c0.1,0,0.3-0.1,0.4-0.1c0.1,0,0.1,0,0.1-0.1l0-0.1v-0.1v-0.2c0-0.2-0.1-0.7-0.1-0.8s0-0.2,0-0.2h-0.1
				c-0.2,0.1-0.4,0.1-0.6,0.1c-0.1,0-0.3-0.1-0.3-0.2c-0.1-0.1-0.1-0.3,0-0.5c0.1-0.1,0.1-0.2,0.2-0.2c0.1,0,0.1,0,0.2,0
				c0,0,0.1,0,0.1,0h0h0.1c0.1-0.1,0.1-0.1,0.2-0.2v-0.1V42c0-0.2,0-0.7,0-0.9s0-0.2,0-0.2h-0.1c-0.1,0-0.2,0-0.3,0
				c-0.1,0-0.2,0-0.2-0.1c-0.1-0.1-0.1-0.1-0.2-0.2c0-0.1,0-0.1,0-0.2c0,0,0-0.1,0-0.2c0.1-0.2,0.3-0.2,0.4-0.2l0.3,0.1h0.1
				c0,0,0,0,0.1,0c0.1-0.1,0.2-0.2,0.3-0.3l0,0v-0.2c0-0.2,0.1-0.6,0.2-0.8l0.1-0.2H17c-0.3,0-0.4,0-0.5-0.3c0-0.1,0-0.2,0-0.3
				c0-0.1,0.1-0.2,0.1-0.2c0.1,0,0.1-0.1,0.2-0.1c0.1,0,0.2,0.1,0.3,0.2c0,0.1,0.1,0.1,0.3,0.1h0.1l0.1-0.2c0.1-0.3,0.2-0.5,0.4-0.9
				c0.1-0.1,0.1-0.2,0.2-0.3h-0.1c-0.1,0-0.2-0.1-0.3-0.1c-0.1-0.1-0.2-0.2-0.2-0.3c0-0.1,0-0.1,0-0.2c0-0.1,0-0.2,0.1-0.3
				c0.1-0.1,0.1-0.1,0.2-0.1c0.1,0,0.2,0,0.2,0.1c0,0,0.1,0.1,0.1,0.1l0.1,0.1c0,0,0.1,0,0.1,0h0l0.2-0.3c0.2-0.3,0.4-0.6,0.6-0.8
				l0.1-0.1l0-0.1c0,0-0.1-0.1-0.1-0.1h-0.1c-0.1,0-0.1-0.1-0.2-0.2v-0.2c-0.1-0.3,0-0.4,0.2-0.5c0.1,0,0.2,0,0.3,0
				c0.1,0.1,0.2,0.2,0.3,0.3c0.1,0.1,0.1,0.1,0.1,0.1h0.1l0,0l0.2-0.2c0.2-0.2,0.5-0.5,0.7-0.6l0.1-0.1l-0.1-0.1l-0.1-0.1l0-0.1
				c0-0.1-0.1-0.2-0.1-0.3c0-0.1,0-0.2,0.1-0.2c0.1-0.1,0.3-0.1,0.5,0c0.1,0.1,0.2,0.2,0.2,0.3c0,0.1,0,0.1,0.1,0.1l0,0l0.1-0.1
				c0.3-0.2,0.7-0.4,1-0.6l0.2-0.1v-0.1c0-0.1,0-0.2,0-0.3c0-0.2,0-0.3,0.1-0.4c0.1-0.2,0.3-0.2,0.5-0.1c0,0,0.1,0.1,0.1,0.1
				c0,0,0,0.1,0.1,0.1c0,0.1,0.1,0.1,0.1,0.2l0,0l0.2-0.1c0.3-0.2,0.7-0.3,1-0.4C25,31,25,31,25,31c0-0.2,0-0.4,0-0.6
				c0-0.1,0-0.1,0.1-0.1c0,0,0.1-0.1,0.1-0.1c0,0,0.1,0,0.1,0c0,0,0,0,0.1,0c0,0,0.1,0,0.1,0c0.1,0,0.1,0.1,0.2,0.1l0,0l0,0
				c0,0,0,0,0,0.1c0,0,0,0.1,0,0.1c0,0,0,0.1,0,0.1c0,0,0,0,0,0.1s0,0,0,0h0.2c0.3-0.1,0.9-0.2,1.2-0.2h0.1v-0.1
				c0-0.1,0-0.3,0.1-0.4c0-0.1,0-0.1,0.1-0.2c0,0,0.1-0.1,0.1-0.1c0.1,0,0.1,0,0.3,0.1c0.1,0,0.1,0.1,0.2,0.2V30
				c0,0.1,0.1,0.2,0.1,0.3v0.1h0.1c0.2,0,1,0,1.2,0h0.2c0,0,0-0.1,0-0.2s0-0.2,0.1-0.4c0-0.1,0.1-0.1,0.2-0.1c0.1,0,0.1,0,0.2,0h0
				c0.1,0,0.1,0.1,0.2,0.2l0,0c0,0,0,0.1,0,0.1c0.1,0.1,0.2,0.2,0.3,0.2c0,0,0,0.1,0,0.1c0,0.1,0,0.1,0.2,0.1s0.7,0.1,1.1,0.2h0.2
				c0,0,0-0.1,0-0.2c0-0.1,0-0.1,0-0.2c0-0.1,0.1-0.2,0.2-0.3c0.1,0,0.2,0,0.3,0c0.2,0.1,0.2,0.2,0.2,0.6v0.2l0.2,0
				c0.3,0.1,0.8,0.3,1.1,0.4h0.1v-0.1c0,0,0-0.1,0-0.1c0,0,0-0.1,0-0.1c0-0.1,0.1-0.1,0.1-0.2c0.1-0.1,0.3-0.1,0.5,0c0,0,0,0,0,0
				c0,0,0.1,0.1,0.1,0.1c0,0.1,0.1,0.1,0.1,0.2c0,0.1,0,0.3-0.1,0.4l0,0l0.2,0.1c0.3,0.2,0.6,0.4,0.9,0.5l0.2,0.1v-0.1
				c0-0.1,0.1-0.2,0.2-0.3l0.2-0.1c0.1,0,0.1-0.1,0.2-0.1c0.1,0,0.2,0,0.2,0.1c0.1,0.1,0.1,0.1,0.1,0.3v0.2l-0.1,0.1l-0.1,0.2
				c0,0.1-0.1,0.1,0,0.1l0.1,0.1c0.2,0.2,0.6,0.5,0.8,0.7s0.1,0.1,0.1,0.1s0,0,0.1-0.1c0.1-0.1,0.2-0.2,0.3-0.2c0.1,0,0.1,0,0.2,0
				c0.2,0,0.4,0.1,0.4,0.4c0,0,0,0,0,0v0.1l-0.1,0.1l-0.1,0.2c0,0,0,0.1,0,0.1l-0.1,0.1c0,0,0,0,0,0.1l0.1,0.2
				c0.2,0.2,0.4,0.5,0.5,0.7c0,0.1,0.1,0.1,0.1,0.1c0.1,0,0.1,0.1,0.2,0.1c0.1,0,0.1,0,0.1,0c0-0.1,0.1-0.1,0.2-0.2
				c0.1,0,0.1,0,0.2,0c0.1,0,0.2,0,0.3,0.1c0.1,0.1,0.1,0.3,0.1,0.4c-0.1,0.1-0.1,0.2-0.2,0.3c-0.1,0.1-0.1,0.1-0.2,0.1h-0.1
				l0.1,0.1c0.1,0.2,0.3,0.6,0.4,0.8s0.1,0.2,0.1,0.2c0,0,0.1,0.1,0.1,0.1l0,0h0.1l0.1-0.1c0.1-0.1,0.2-0.1,0.3-0.1
				c0.1,0,0.1,0,0.2,0c0.1,0,0.1,0.1,0.2,0.2c0,0.1,0,0.2,0,0.3c0,0.1,0,0.1,0,0.2c0,0.1-0.2,0.2-0.3,0.2c-0.1,0-0.1,0-0.2,0.1
				l-0.1,0.1l-0.1,0.1l0.1,0.2c0.1,0.2,0.2,0.6,0.2,0.8v0.1h0.1c0,0,0.1,0,0.1,0h0l0,0h0.2c0.1,0,0.2,0,0.3,0c0.1,0,0.2,0.1,0.2,0.2
				c0,0.1,0,0.2,0,0.3c0,0.1-0.1,0.3-0.2,0.3c-0.1,0-0.1,0-0.3,0h-0.3c0,0.1,0,0.1,0,0.2c0,0.3,0,0.5,0,0.8V42l0.1,0.1l0.1,0.1h0.4
				c0.1,0,0.2,0,0.3,0.1c0.2,0.1,0.2,0.3,0.2,0.5c0,0.2-0.1,0.3-0.3,0.4c-0.2,0-0.3,0-0.5-0.1l-0.1,0c0,0,0,0,0,0.3
				s-0.1,0.7-0.1,0.9v0.1v0.1c0,0.1,0.1,0.1,0.1,0.2c0,0,0,0,0.1,0c0.1,0,0.1,0,0.2,0c0.1,0,0.2,0.1,0.2,0.2c0,0.1,0.1,0.1,0.1,0.2
				c0,0.1,0,0.1,0,0.2c0,0.1-0.1,0.2-0.2,0.2c-0.1,0-0.1,0-0.2,0c-0.2,0-0.3,0-0.4-0.2s-0.1-0.1-0.1-0.1c-0.1,0.3-0.2,0.7-0.3,1
				l-0.1,0.2l0,0c0,0.1,0.1,0.1,0.1,0.2v0.1h0.1c0.1,0,0.2,0.1,0.3,0.1c0.2,0.2,0.3,0.3,0.2,0.5c0,0.1-0.1,0.2-0.2,0.2
				c-0.1,0-0.1,0-0.2,0c-0.2,0-0.4,0-0.5-0.2c-0.1-0.1-0.1-0.1-0.1-0.1h0l-0.1,0.2c-0.1,0.2-0.3,0.5-0.5,0.7l-0.1,0.2v0
				c0,0,0,0.1,0,0.1c0,0,0,0.1,0,0.1c0,0,0,0.1,0.1,0.1c0.2,0.2,0.3,0.2,0.3,0.3c0.1,0.1,0.1,0.3,0,0.4c0,0.1-0.1,0.2-0.2,0.2
				c-0.1,0-0.1,0-0.2,0c-0.1,0-0.1,0-0.2,0l-0.1-0.1c0,0-0.1-0.1-0.1-0.1c0,0-0.1,0-0.2,0h-0.3L38,49.6c-0.1,0.1-0.2,0.2-0.3,0.3
				l-0.2,0.2v0.3v0.1c0,0,0.1,0.1,0.1,0.1c0.1,0.1,0.1,0.1,0.2,0.2c0,0.1,0.1,0.2,0.1,0.3c0,0.2-0.1,0.3-0.3,0.3c-0.1,0-0.2,0-0.2,0
				c-0.1,0-0.2,0-0.3-0.1c-0.1-0.1-0.2-0.2-0.2-0.3c0-0.1-0.1-0.2-0.1-0.2h-0.1L36.5,51c-1.2,1-2.7,1.7-4.2,2.1
				c-0.3,0.1-0.7,0.2-1,0.2L31,53.4c0,0,0,0.2,0,0.4 M29.8,52.3l0.6-0.1c0,0,0,0,0-0.2c0-0.1,0-0.1,0-0.2v-0.2v-0.2v-0.2V51
				c0-0.2,0-0.3-0.1-0.4s0-0.1,0-0.2s0-0.1,0-0.2V50c0-0.1,0-0.1,0-0.3s0-0.2,0-0.3s0-0.1,0-0.2v-0.1c0-0.1,0-0.2,0-0.3
				c0,0,0-0.1,0-0.2s0-0.1,0-0.2v-0.1c0,0,0-0.1,0-0.1c0,0,0-0.1,0-0.1s-0.2-1.3-0.4-3.2c-0.2-1.7-0.2-1.8-0.2-1.8s0,0,0,0.1
				s0,0.1,0,0.2c0,0.1,0,0.1,0,0.2c0,0.3-0.1,0.5-0.1,0.6s0,0.3-0.1,0.4v0.3c0,0.1,0,0.3,0,0.3s0,0.2-0.1,0.3c0,0.1,0,0.2,0,0.3
				c0,0.1,0,0.2,0,0.3s0,0.3,0,0.3s0,0.2,0,0.3s0,0.3,0,0.3s0,0.2,0,0.3s0,0.2,0,0.3s-0.1,0.5-0.1,0.7c0,0.1,0,0.2,0,0.3v0.2
				c0,0,0,0.1,0,0.1s0,0.1,0,0.2s0,0.1,0,0.2s0,0.1,0,0.2s0,0.1,0,0.2s0,0.2-0.1,0.3s0,0.1,0,0.2s0,0.1,0,0.2v0.2v0.2v0.2
				c0,0.1,0,0.1,0,0.2c0,0.1,0,0.1,0,0.2v0.2c0,0.1,0,0.2,0,0.2c0,0.1,0,0.2,0,0.3l0,0c0,0,0.7,0.1,1,0.1s1,0,1.2,0L29.8,52.3z
				 M31.1,52.1c2-0.4,3.9-1.4,5.4-2.9c1.6-1.6,2.6-3.7,2.8-6c0-0.3,0-0.7,0-1c0-0.3,0-0.7,0-1c-0.3-2.2-1.2-4.3-2.8-5.9
				c-1.6-1.6-3.7-2.7-5.9-3c-0.5-0.1-1.1-0.1-1.6-0.1c-0.4,0-0.8,0-1.2,0.1c-1.2,0.1-2.4,0.5-3.5,1c-2.4,1.2-4.2,3.2-5.1,5.7
				c-0.3,0.7-0.4,1.5-0.5,2.3c0,0.3-0.1,0.7,0,1c0,0.3,0,0.7,0,1c0.2,2.3,1.2,4.4,2.8,6c1.4,1.5,3.3,2.5,5.3,2.9c0.2,0,0.2,0,0.2,0
				s0-0.1,0-0.2c0,0,0-0.1,0-0.2c0,0,0-0.1,0-0.1c0,0,0-0.1,0-0.1c0-0.1,0-0.1,0-0.2s0-0.1,0-0.3v-0.2v-0.1c0,0,0-0.1,0-0.1
				c0,0,0-0.1,0-0.1v-0.1c0,0,0-0.1,0-0.2c0,0,0-0.1,0-0.1c0,0,0-0.1,0-0.1c0,0,0-0.1,0-0.2c0-0.1,0-0.2,0-0.3c0-0.1,0-0.2,0.1-0.3
				c0-0.1,0-0.2,0-0.3c0-0.1,0-0.2,0-0.3s0-0.2,0-0.3s0-0.2,0-0.3c0-0.1,0-0.2,0-0.3c0-0.1,0-0.2,0-0.3c0-0.1,0-0.1,0-0.2
				c0,0,0-0.1,0-0.1c0,0,0-0.1,0-0.1c0,0,0-0.1,0-0.2c0,0,0-0.1,0-0.1c0,0,0-0.1,0-0.1c0,0,0-0.1,0-0.1v-0.1c0,0,0-0.1,0-0.2
				c0,0,0-0.1,0-0.1c0,0,0-0.1,0-0.1c0,0,0-0.1,0-0.2c0-0.1,0-0.2,0-0.3c0-0.2,0-0.2,0-0.3s0-0.2,0.1-0.3s0-0.2,0-0.3s0-0.2,0-0.3
				s0-0.2,0-0.3c0-0.1,0-0.2,0-0.3c0,0,0-0.1,0-0.2s0-0.1,0-0.3s0-0.2,0-0.3s0-0.1,0-0.2V43c0,0,0,0-0.1,0c-0.4-0.2-0.8-0.5-0.9-1
				c0-0.2,0-0.4,0-0.5c0.1-0.3,0.2-0.5,0.4-0.7c0.2-0.2,0.4-0.3,0.7-0.4c0.2,0,0.4,0,0.5,0c0.4,0.1,0.8,0.4,1,0.7
				c0.1,0.2,0.1,0.4,0.1,0.6c0,0.1,0,0.2,0,0.3c-0.1,0.3-0.2,0.5-0.4,0.7c-0.2,0.2-0.4,0.3-0.6,0.3h-0.1v0c0,0,0,0.1,0,0.1
				c0,0,0,0.1,0,0.2s0,0.1,0,0.2c0,0.1,0,0.1,0,0.2c0,0,0,0.1,0,0.2s0,0.2,0.1,0.3c0,0,0,0.1,0,0.2v0.2c0,0.2,0.1,0.3,0.1,0.5
				s0,0.1,0,0.2s0,0.1,0,0.2l0.1,0.3c0,0,0,0.1,0,0.2s0,0.1,0,0.2s0,0.1,0,0.2c0,0,0,0.1,0,0.1c0,0,0,0.1,0,0.2s0,0.1,0,0.2v0.2
				c0,0.1,0,0.1,0,0.2s0,0.1,0,0.2s0,0.1,0,0.2s0,0.1,0,0.2s0,0.3,0.1,0.4s0,0.1,0,0.2c0,0.1,0,0.1,0,0.2c0,0,0,0.1,0,0.2v0.2
				c0,0.2,0.1,0.3,0.1,0.5c0,0.2,0,0.3,0,0.4s0,0.2,0.1,0.3l0,0.4c0,0.1,0,0.3,0.1,0.6c0.1,0.5,0.1,1,0.2,1.2s0,0.2,0,0.2s0,0,0.3,0
				L31.1,52.1z"/>
		</g>
		<rect x="89" y="41.8" class="st3" width="7.2" height="6.8"/>
		<rect x="100.4" y="41.8" class="st3" width="7.2" height="6.8"/>
		<rect x="111.7" y="41.8" class="st3" width="7.2" height="6.8"/>
		<rect x="123.1" y="41.8" class="st3" width="7.2" height="6.8"/>
		<rect x="134.5" y="41.8" class="st3" width="7.2" height="6.8"/>
		<rect x="145.8" y="41.8" class="st3" width="7.2" height="6.8"/>
		<polygon class="st4" points="167.9,7.9 168.7,0 169.5,0 170.3,7.9 		"/>
		<path class="st3" d="M175.1,14.1h-12.1c0-3.9,2.6-7.2,6.2-7.2C173.3,6.9,175.1,10.3,175.1,14.1z"/>
		<rect x="160.9" y="12.9" class="st3" width="16.4" height="19.4"/>
		<path class="st3" d="M127.5,23.2h-11.3c0-3.5,2.4-6.5,5.8-6.5C125.8,16.7,127.5,19.7,127.5,23.2z"/>
		<polygon class="st4" points="120.3,15.8 121.2,8.6 122.1,8.6 123,15.8 		"/>
		<rect x="158.2" y="19.4" class="st3" width="21.8" height="29.2"/>
		<path class="st3" d="M138.8,34.9h-34.2c0-6.7,7.3-12.4,17.6-12.4C133.6,22.5,138.8,28.2,138.8,34.9z"/>
		<polygon class="st3" points="154.4,43.4 88,43.4 88,36.8 121.7,31.5 154.4,36.8 		"/>
		<polyline class="st5" points="0.5,62.6 0.5,24.7 188.5,24.7 188.5,62.6 		"/>
		<path class="st6" d="M83.5,70.3l2.2,2.3c1.3,1.4,3,2.3,4.8,2.7l-1.1,3.9c-4.2-0.3-6.4-2.4-8.6-5l-2.4-2.8c-0.4,0-0.8,0-1.1,0h-1.6
			v7.3h-5.1V57.6h8.2c4.8,0,8.2,2.2,8.2,6.9 M77.3,67.9c3,0,4.3-1.3,4.3-3.3s-0.9-3-3.6-3h-2.5v6.3L77.3,67.9z"/>
		<path class="st6" d="M104.2,74.7c2-1.4,8.4-4.8,8.4-6.8c0-1.4-1.3-1.8-3-1.8c-1.4,0-2.7,0.3-4,0.8l-1.1-3.6
			c1.7-0.8,3.5-1.2,5.4-1.2c6.2,0,7.7,3,7.7,5.8c0,3.6-4.7,6-7.1,7.1h7.9v4h-14.1V74.7z"/>
		<path class="st6" d="M122.4,70.8c0-5.4,3-8.8,9.3-8.8c6.3,0,8.6,3.5,8.6,8.2c0,6.1-3.4,8.9-9.1,8.9
			C125.1,79.1,122.4,76.3,122.4,70.8z M135.2,70.3c0-2.7-1.2-4.3-3.7-4.3s-4,1.7-4,4.6c0,3.1,1.7,4.3,3.8,4.3S135.2,73.5,135.2,70.3
			z"/>
		<path class="st6" d="M144.1,74.7c2-1.4,8.4-4.8,8.4-6.8c0-1.4-1.3-1.8-3-1.8c-1.4,0-2.7,0.3-4,0.8l-1.1-3.6
			c1.7-0.8,3.5-1.2,5.4-1.2c6.2,0,7.6,3,7.6,5.8c0,3.6-4.6,6-7.1,7.1h7.9v4h-14.1V74.7z"/>
		<path class="st6" d="M162.2,70.8c0-5.4,3-8.8,9.3-8.8s8.6,3.5,8.6,8.2c0,6.1-3.4,8.9-9.1,8.9C165,79.1,162.2,76.3,162.2,70.8z
			 M175,70.3c0-2.7-1.2-4.3-3.7-4.3s-4,1.7-4,4.6c0,3.1,1.7,4.3,3.8,4.3S175,73.5,175,70.3z"/>
	</g>
</g>
</svg>
