<svg xmlns="http://www.w3.org/2000/svg" xmlns:xlink="http://www.w3.org/1999/xlink" viewBox="0 0 345.58 68.27"><defs><style>.cls-1{fill:url(#radial-gradient);}.cls-2{fill:#111011;stroke:#010101;stroke-miterlimit:10;stroke-width:0.75px;}.cls-3{font-size:21px;fill:#5d6b9a;font-family:GurmukhiSangamMN-Bold, Gurmukhi Sangam MN;font-weight:700;}</style><radialGradient id="radial-gradient" cx="165.32" cy="-7.87" r="127.82" gradientTransform="translate(-0.82 37.52) scale(1.05 0.45)" gradientUnits="userSpaceOnUse"><stop offset="0" stop-color="#fff"/><stop offset="0.49" stop-color="#fcfafb"/><stop offset="1" stop-color="#f5eeef"/></radialGradient></defs><g id="Layer_2" data-name="Layer 2"><g id="Layer_1-2" data-name="Layer 1"><rect class="cls-1" width="345.58" height="67.89"/><path class="cls-2" d="M201.78,66.35V60.28l-2.1,3Zm-.34-1.09-1.35-2,1.35-2Z"/><path class="cls-2" d="M175,53.14h-1.49v3H175Zm-.34,2.62h-.81V53.48h.81Z"/><path class="cls-2" d="M189.75,56.09h1.48v-3h-1.48Zm.34-2.61h.8v2.28h-.8Z"/><path class="cls-2" d="M192,56.09h1.48v-3H192Zm.34-2.61h.8v2.28h-.8Z"/><path class="cls-2" d="M178.1,56.09h1.48v-3H178.1Zm.34-2.61h.8v2.28h-.8Z"/><path class="cls-2" d="M180.41,56.09h1.48v-3h-1.48Zm.34-2.61h.8v2.28h-.8Z"/><path class="cls-2" d="M182.72,56.09h1.49v-3h-1.49Zm.34-2.61h.81v2.28h-.81Z"/><path class="cls-2" d="M194.26,56.09h1.48v-3h-1.48Zm.34-2.61h.8v2.28h-.8Z"/><path class="cls-2" d="M197.23,66.34l2.09-3-2.09-3Zm.34-5,1.34,1.94-1.34,1.94Z"/><path class="cls-2" d="M175,66.35V60.28l-2.1,3Zm-.34-1.09-1.34-2,1.34-2Z"/><path class="cls-2" d="M170.5,59.77l2.27,3.29L175,59.77V59H170.5Zm.34-.46h3.86v.35l-1.93,2.8-1.93-2.79Z"/><path class="cls-2" d="M170.5,66.34l2.09-3-2.09-3Zm.34-5,1.34,1.94-1.34,1.94Z"/><path class="cls-2" d="M175.79,56.09h1.48v-3h-1.48Zm.34-2.61h.8v2.28h-.8Z"/><path class="cls-2" d="M94.84,66.35V60.28l-2.1,3Zm-.34-1.09-1.34-2,1.34-2Z"/><path class="cls-2" d="M62.88,47.72a.67.67,0,1,0,.66.67A.65.65,0,0,0,62.88,47.72Zm0,1a.32.32,0,0,1-.31-.32.32.32,0,1,1,.31.32Z"/><path class="cls-2" d="M66.92,49.05a.67.67,0,1,0,0-1.33.67.67,0,0,0,0,1.33Zm0-1a.34.34,0,0,1,.34.34.33.33,0,0,1-.34.32.32.32,0,0,1-.32-.32A.33.33,0,0,1,66.92,48.05Z"/><path class="cls-2" d="M59,47.72a.67.67,0,0,0,0,1.33.67.67,0,0,0,0-1.33Zm0,1a.31.31,0,0,1-.29-.32.32.32,0,0,1,.29-.34.31.31,0,0,1,.27.34A.3.3,0,0,1,59,48.71Z"/><path class="cls-2" d="M50.41,49.12a.63.63,0,1,0,0,1.25.63.63,0,1,0,0-1.25Zm0,.92a.29.29,0,1,1,0-.58.28.28,0,0,1,.29.29A.29.29,0,0,1,50.41,50Z"/><path class="cls-2" d="M55.36,47.72c-.27,0-.49.29-.49.67s.22.66.49.66.49-.3.49-.66S55.63,47.72,55.36,47.72Zm0,1s-.15-.12-.15-.32.11-.34.15-.34.15.12.15.34S55.4,48.71,55.36,48.71Z"/><path class="cls-2" d="M65.34,53.06H64v3.19h1.35ZM65,55.91h-.67V53.4H65Z"/><path class="cls-2" d="M67.6,53.06H66.26v3.19H67.6Zm-.34,2.85H66.6V53.4h.66Z"/><path class="cls-2" d="M68.11,66.35V60.28l-2.1,3Zm-.34-1.09-1.35-2,1.35-2Z"/><path class="cls-2" d="M63.56,59.77l2.27,3.29,2.28-3.29V59H63.56Zm.34-.46h3.87v.35l-1.94,2.8L63.9,59.67Z"/><path class="cls-2" d="M45.34,49.12a.63.63,0,1,0,.63.63A.63.63,0,0,0,45.34,49.12Zm0,.92a.29.29,0,0,1-.3-.29.3.3,0,0,1,.59,0A.29.29,0,0,1,45.34,50Z"/><path class="cls-2" d="M63.56,66.34l2.1-3-2.1-3Zm.34-5,1.34,1.94L63.9,65.25Z"/><path class="cls-2" d="M68.51,56.25h1.35V53.06H68.51Zm.34-2.85h.67v2.51h-.67Z"/><path class="cls-2" d="M10.1,59.77l2.27,3.29,2.27-3.29V59H10.1Zm.34-.46H14.3v.35l-1.93,2.8-1.93-2.79Z"/><path class="cls-2" d="M21.53,34.89V33.36A2.61,2.61,0,0,0,21.53,34.89Z"/><path class="cls-2" d="M10.1,66.34l2.09-3-2.09-3Zm.34-5,1.34,1.94-1.34,1.94Z"/><path class="cls-2" d="M36.83,59.77l2.27,3.29,2.28-3.29V59H36.83Zm.34-.46H41v.35l-1.94,2.8-1.93-2.79Z"/><path class="cls-2" d="M25.05,49.12a.63.63,0,1,0,0,1.25.63.63,0,1,0,0-1.25Zm0,.92a.29.29,0,1,1,.3-.29A.29.29,0,0,1,25.05,50Z"/><path class="cls-2" d="M14.64,66.35V60.28l-2.1,3Zm-.34-1.09-1.34-2,1.34-2Z"/><path class="cls-2" d="M30.12,49.12a.63.63,0,1,0,0,1.25.63.63,0,1,0,0-1.25Zm0,.92a.29.29,0,0,1-.29-.29.3.3,0,0,1,.59,0A.29.29,0,0,1,30.12,50Z"/><path class="cls-2" d="M36.83,66.34l2.09-3-2.09-3Zm.34-5,1.34,1.94-1.34,1.94Z"/><path class="cls-2" d="M41.38,66.35V60.28l-2.1,3ZM41,65.26l-1.35-2,1.35-2Z"/><path class="cls-2" d="M35.2,49.12a.63.63,0,1,0,.63.63A.63.63,0,0,0,35.2,49.12Zm0,.92a.29.29,0,1,1,0-.58.28.28,0,0,1,.29.29A.29.29,0,0,1,35.2,50Z"/><path class="cls-2" d="M40.26,50.37a.63.63,0,1,0-.63-.62A.63.63,0,0,0,40.26,50.37Zm0-.91a.29.29,0,1,1-.29.29A.29.29,0,0,1,40.26,49.46Z"/><path class="cls-2" d="M90.3,66.34l2.09-3-2.09-3Zm.34-5L92,63.31l-1.34,1.94Z"/><path class="cls-2" d="M125.93,51.26H127V49.75h-1.07Zm.34-1.17h.39v.83h-.39Z"/><path class="cls-2" d="M124.18,51.26h1.07V49.75h-1.07Zm.34-1.17h.39v.83h-.39Z"/><path class="cls-2" d="M117,59.77l2.27,3.29,2.28-3.29V59H117Zm.34-.46h3.87v.35l-1.94,2.8-1.93-2.79Z"/><path class="cls-2" d="M122.43,51.26h1.08V49.75h-1.08Zm.34-1.17h.4v.83h-.4Z"/><path class="cls-2" d="M127.68,51.26h1.07V49.75h-1.07Zm.34-1.17h.39v.83H128Z"/><path class="cls-2" d="M129.42,51.26h1.08V49.75h-1.08Zm.34-1.17h.4v.83h-.4Z"/><path class="cls-2" d="M148.31,66.35V60.28l-2.1,3ZM148,65.26l-1.35-2,1.35-2Z"/><polygon class="cls-2" points="144.1 60.32 144.62 61.01 144.1 60.27 144.1 60.32"/><path class="cls-2" d="M121.58,66.35V60.28l-2.1,3Zm-.34-1.09-1.35-2,1.35-2Z"/><path class="cls-2" d="M143.76,66.34l2.1-3-2.1-3Zm.34-5,1.34,1.94-1.34,1.94Z"/><path class="cls-2" d="M134,40.05V38.32A2.53,2.53,0,0,0,134,40.05Z"/><path class="cls-2" d="M93.59,50.37a.63.63,0,1,0,0-1.25.63.63,0,1,0,0,1.25Zm0-.91a.29.29,0,1,1,0,.58.29.29,0,1,1,0-.58Z"/><path class="cls-2" d="M117,66.34l2.09-3-2.09-3Zm.34-5,1.34,1.94-1.34,1.94Z"/><path class="cls-2" d="M83.44,49.12a.63.63,0,1,0,.64.63A.63.63,0,0,0,83.44,49.12Zm0,.92a.29.29,0,0,1-.29-.29.28.28,0,0,1,.29-.29.29.29,0,1,1,0,.58Z"/><path class="cls-2" d="M71,47.72a.67.67,0,1,0,.66.67A.66.66,0,0,0,71,47.72Zm0,1a.33.33,0,1,1,.32-.32A.32.32,0,0,1,71,48.71Z"/><path class="cls-2" d="M74.89,47.72a.67.67,0,1,0,.62.67A.64.64,0,0,0,74.89,47.72Zm0,1a.31.31,0,0,1-.28-.32.29.29,0,1,1,.56,0A.31.31,0,0,1,74.89,48.71Z"/><path class="cls-2" d="M78.5,47.72c-.27,0-.49.29-.49.67s.22.66.49.66.49-.3.49-.66S78.76,47.72,78.5,47.72Zm0,1s-.15-.11-.15-.32.11-.34.15-.34a.37.37,0,0,1,.15.34C78.65,48.59,78.54,48.71,78.5,48.71Z"/><path class="cls-2" d="M88.52,49.12a.63.63,0,1,0,0,1.25.63.63,0,1,0,0-1.25Zm0,.92a.29.29,0,0,1-.3-.29.3.3,0,0,1,.59,0A.29.29,0,0,1,88.52,50Z"/><path class="cls-2" d="M108.8,49.12a.63.63,0,1,0,.64.63A.64.64,0,0,0,108.8,49.12Zm0,.92a.29.29,0,1,1,0-.58.29.29,0,1,1,0,.58Z"/><path class="cls-2" d="M103.73,49.12a.63.63,0,1,0,.63.63A.63.63,0,0,0,103.73,49.12Zm0,.92a.29.29,0,0,1-.29-.29.28.28,0,0,1,.29-.29.28.28,0,0,1,.29.29A.28.28,0,0,1,103.73,50Z"/><polygon class="cls-2" points="143.76 59.77 144.1 60.27 144.1 60.04 147.29 60.04 147.29 60.31 145.69 62.46 144.62 61.01 146.03 63.05 148.31 59.77 148.31 58.97 143.76 58.97 143.76 59.77"/><path class="cls-2" d="M98.66,49.12a.63.63,0,1,0,.64.63A.64.64,0,0,0,98.66,49.12Zm0,.92a.29.29,0,0,1-.3-.29.29.29,0,0,1,.3-.29.29.29,0,1,1,0,.58Z"/><path class="cls-2" d="M90.3,59.77l2.27,3.29,2.27-3.29V59H90.3Zm.34-.46H94.5v.35l-1.93,2.8-1.93-2.79Z"/><rect class="cls-2" x="282.32" y="51.8" width="0.52" height="2.15"/><path class="cls-2" d="M296.87,55.65h1.67v.79h.52l.23-5.32h-2.42Zm.34-4.19h1.72l-.17,3.93a.33.33,0,0,0-.22-.08h-1.33Z"/><path class="cls-2" d="M299.51,53.4l-.12,2.8,1.27-1.47Zm.3.87.4.46-.44.52Z"/><polygon class="cls-2" points="299.97 56.44 299.97 55.77 299.39 56.44 299.97 56.44"/><path class="cls-2" d="M296.87,49.94h2.47l0-.9a13.23,13.23,0,0,1-2.51.69Zm2.15-.42v.08h-.24Z"/><polygon class="cls-2" points="301.25 51.12 300.29 51.12 300.77 51.6 301.25 51.12"/><polygon class="cls-2" points="300.87 43.69 301.56 44.5 301.64 44.47 301.57 42.88 300.87 43.69"/><path class="cls-2" d="M300.06,51.12h-.45l-.08,1.71,1.12-1.12Zm-.13.35.25.24-.27.27Z"/><path class="cls-2" d="M299.52,53.06v.11l1.25,1.44.85-1v-1l-.85-.84Zm1.76-.25v.7l-.51.59-.84-1,.84-.83Z"/><path class="cls-2" d="M300.87,48.86l.75.91V48l-.11.06Z"/><path class="cls-2" d="M299.77,47.37v.13l.44.54c.48-.22,1-.46,1.42-.71V47.2l-.85-1Zm1.39-.17-.86.42-.15-.17.62-.7Z"/><polygon class="cls-2" points="300.87 46.12 301.62 46.97 301.62 45.74 301.31 45.61 300.87 46.12"/><polygon class="cls-2" points="300.88 51.71 301.62 52.45 301.62 51.12 301.47 51.12 300.88 51.71"/><polygon class="cls-2" points="300.08 55.65 301.45 55.65 300.77 54.85 300.08 55.65"/><polygon class="cls-2" points="301.62 55.59 301.62 53.87 300.87 54.73 301.62 55.59"/><path class="cls-2" d="M300.77,49l-.79,1h1.57Zm0,.54.07.08h-.15Z"/><path class="cls-2" d="M300.6,48.52l.17.21.39-.48Z"/><polygon class="cls-2" points="300.22 36.9 300.18 37.84 300.65 37.35 300.22 36.9"/><path class="cls-2" d="M300.66,48.86l-.21-.27-.75.32,0,1h.12Z"/><path class="cls-2" d="M301.3,36.69v-.12l-.53-.61-.53.61v.12l.54.55Zm-.53-.21.12.14-.12.13-.13-.13Z"/><polygon class="cls-2" points="300.29 35.41 300.25 36.31 300.66 35.84 300.29 35.41"/><polygon class="cls-2" points="300.36 33.71 300.32 34.71 300.67 34.18 300.36 33.71"/><path class="cls-2" d="M301.24,35.18V35l-.46-.7-.47.7v.16l.47.54Zm-.47-.25.1.16-.1.11-.11-.11Z"/><polygon class="cls-2" points="300.67 39.15 300.16 38.46 300.11 39.53 300.38 39.53 300.67 39.15"/><path class="cls-2" d="M301.37,38.21v-.13l-.59-.62-.6.62v.13l.6.81Zm-.6-.26.21.22-.21.28-.21-.28Z"/><polygon class="cls-2" points="300.41 41.06 300.04 41.06 299.99 42.24 300.67 41.38 300.41 41.06"/><path class="cls-2" d="M301.16,45.54l-.35-.15a.31.31,0,0,1-.18-.28.29.29,0,0,1,.18-.27l.6-.27-.64-.75-.89,1V45l.9,1Zm-.85-.58,0-.05.11-.13A.67.67,0,0,0,300.31,45Zm.46-.63.09.12-.19.08-.16.1Z"/><path class="cls-2" d="M299.75,47.74l0,.5.32-.13Z"/><path class="cls-2" d="M301.16,33.44v-.19l-.38-.56-.39.56v.19l.4.59Zm-.39-.15,0,.06,0,.07,0-.07Z"/><path class="cls-2" d="M301.56,42.65v-.14l-.78-1-.79,1v.14l.8.92Zm-.79-.59.41.52-.41.47-.41-.47Z"/><polygon class="cls-2" points="299.96 42.88 299.89 44.59 300.66 43.69 299.96 42.88"/><path class="cls-2" d="M299.86,45.21l-.08,1.91.88-1Zm.31.85,0,.06,0,.05Z"/><path class="cls-2" d="M308.26,44.45a18.61,18.61,0,0,0-2.88,1.4v4a10,10,0,0,0,2.88-1Zm-.34,4.23a9.62,9.62,0,0,1-2.2.8V46a21.47,21.47,0,0,1,2.2-1.1Z"/><rect class="cls-2" x="329.33" y="42.43" width="0.47" height="0.86"/><rect class="cls-2" x="330.1" y="42.43" width="0.55" height="0.86"/><path class="cls-2" d="M322,44.23l1,.76v.17h-.22v1.05l2.06.31V44.09H322Zm2.51.2v1.7l-1.38-.2v-.45a.34.34,0,0,0,.22-.32V45a.33.33,0,0,0-.13-.26l-.39-.3Z"/><rect class="cls-2" x="320.22" y="46.87" width="0.25" height="1.41"/><path class="cls-2" d="M320.41,42.84c-1,.32-2.42.79-3.87,1.38l1.49.89V45l2.34-1.77Zm-2.48,1.81-.63-.37c.78-.3,1.51-.56,2.14-.78Z"/><rect class="cls-2" x="320.22" y="52.09" width="0.25" height="1.41"/><rect class="cls-2" x="331.68" y="42.43" width="0.4" height="0.86"/><path class="cls-2" d="M330.9,59.77l2.27,3.28,2.27-3.28V59H330.9Zm.34-.46h3.86v.35l-1.93,2.8-1.93-2.79Z"/><path class="cls-2" d="M336.27,56.62V54.51a.34.34,0,0,0-.34-.33h-.68a.34.34,0,0,0-.34.33v.56h-.2l-2-9.35V42.11h0a.41.41,0,0,0,.05-.18v-.18a.35.35,0,0,0-.24-.33,2.5,2.5,0,0,0-1.76-1.89v-.23l.8-.28.07,0h0l0,0a.38.38,0,0,0,.11-.14.19.19,0,0,0,0-.08.17.17,0,0,0,0-.08v-.06s0-.06,0-.08v0l0,0h0v0l0,0-.07-.05h0l-.07,0-.8-.28V37.9a.4.4,0,0,0-.41-.39.39.39,0,0,0-.4.39v1.62a2.49,2.49,0,0,0-1.77,1.9.33.33,0,0,0-.24.32v.18a.32.32,0,0,0,.06.18h0v3.61l-.57,2.64V46.87a.33.33,0,0,0-.28-.33l-.51-.08V41.93a.63.63,0,0,0-.46-.61v-3a.63.63,0,0,0-.63-.63.64.64,0,0,0-.65.63l-.87.39a.29.29,0,0,0-.08,0h0a1.28,1.28,0,0,0-.19.19.21.21,0,0,0,0,.07l0,.07s0,.06,0,.07v0a.22.22,0,0,0,0,.08.19.19,0,0,0,0,.08v.05s0,0,0,.08,0,0,0,0a.45.45,0,0,0,.11.17l.05,0a.65.65,0,0,0,.15.1h0l.88.39v1h-3.07V38.36a.65.65,0,0,0-1.29,0l-.88.39-.08,0h0l-.11.09a.35.35,0,0,0-.07.09l-.05.08h0a.08.08,0,0,0,0,0,.29.29,0,0,0,0,.09.39.39,0,0,0,0,.13.59.59,0,0,0,0,.14.24.24,0,0,0,0,.08.08.08,0,0,0,0,0,.43.43,0,0,0,.08.14l0,0,.05,0a.38.38,0,0,0,.13.09h0l.88.39v1l0,0h0a.34.34,0,0,0-.34.3v0l-1.72.35-.13,0c-.69.15-1.4.3-2.13.43v-.1a.34.34,0,0,0-.34-.3h0V39.55a.65.65,0,0,0-.29-.54.68.68,0,0,0-.35-.1.75.75,0,0,0-.26.05l-1,.45a.62.62,0,0,0-.38.58.63.63,0,0,0,.38.57l.61.27v1.92a25.72,25.72,0,0,1-3.36.22,9,9,0,0,0-2,.22V40.58a.62.62,0,0,0-.29-.53.66.66,0,0,0-.35-.11.58.58,0,0,0-.26.06l-1,.44a.63.63,0,0,0-.38.57.64.64,0,0,0,.38.59l.62.27v1.71a17,17,0,0,0-2.2,1v-.05a.41.41,0,0,0-.42-.41h-.56a.41.41,0,0,0-.42.41v.85c-.24.13-.48.28-.72.42l-.54.32-.5.29V44.68a.61.61,0,0,0-.28-.53L302.15,41l.21-.51v0a.39.39,0,0,0,0-.13v-.7a.42.42,0,0,0-.32-.4l-.47-10.76a1.35,1.35,0,0,0,.55-1.09,1.39,1.39,0,1,0-2.22,1.09l-.47,10.76a.42.42,0,0,0-.32.4v.7a.35.35,0,0,0,0,.13v0l.22.51-.31,7.17a14.75,14.75,0,0,1-1.87.56V44.54a.41.41,0,0,0-.42-.41h-.55a.41.41,0,0,0-.42.41V47a.58.58,0,0,0-.18-.17.64.64,0,0,0-.35-.1.58.58,0,0,0-.26,0l-1,.44a.64.64,0,0,0-.38.58.62.62,0,0,0,.38.57l.61.28V49h0l-1.14,0c-.27-.07-.55-.16-.82-.25v-4.2a.41.41,0,0,0-.42-.41h-.56a.42.42,0,0,0-.37.22V38.56a.34.34,0,0,0-.34-.33h-.29a.34.34,0,0,0-.34.33v.93a3.57,3.57,0,0,0-1.52,1.25,1.79,1.79,0,0,1-1.3.8l-.17,0a.36.36,0,0,0-.24.24,2.63,2.63,0,0,0,.42,2,.31.31,0,0,0,.23.14h.05a.35.35,0,0,0,.22-.08,6.84,6.84,0,0,1,2.31-1.21v5a9.18,9.18,0,0,1-.87-.54l-.2-.14V44.48A.6.6,0,0,0,289,44a.67.67,0,0,0-.34-.1.75.75,0,0,0-.26,0l-1,.45a.62.62,0,0,0-.38.57.64.64,0,0,0,.36.58l.63.27v.55a18.32,18.32,0,0,0-5.35-1.47V42a.63.63,0,0,0-.29-.53.67.67,0,0,0-.35-.1.86.86,0,0,0-.27.05l-1,.44a.62.62,0,0,0-.37.58.62.62,0,0,0,.38.58l.6.27v1.36a10.47,10.47,0,0,0-1.84-.89c-.89-.56-1.8-1.1-2.72-1.59V39.89a.64.64,0,0,0-.64-.64.64.64,0,0,0-.64.64l-.89.39-.1.06-.07.06a.48.48,0,0,0-.1.12l0,0a.27.27,0,0,0-.05.11h0a.24.24,0,0,0,0,.08.37.37,0,0,0,0,.24h0c-.61-.27-1.22-.52-1.82-.74v-.35a.64.64,0,0,0-.64-.64.65.65,0,0,0-.64.54,30.31,30.31,0,0,0-9.51-1.56h-2.73c-8.42,0-15.4,3.73-19.78,6.87A41.58,41.58,0,0,0,231.62,52a.32.32,0,0,0,0,.35.33.33,0,0,0,.18.17v2.39h-.35V40.16a.34.34,0,0,0-.34-.34h-.29a.34.34,0,0,0-.34.34v.89a2.76,2.76,0,0,0-1.67,1.37c-.33.83-.65,1-1.11,1.09a.35.35,0,0,0-.25.35,7.67,7.67,0,0,0,.39,1.84.37.37,0,0,0,.25.2h.06a.31.31,0,0,0,.24-.1,7.76,7.76,0,0,1,2.09-1.44V54.88H230V51.09a.34.34,0,0,0-.34-.34h-7.4a.34.34,0,0,0-.34.34v2.52H217a.34.34,0,0,0-.34.34v2.66H215.2V51.4h.08a.33.33,0,0,0,.32-.24.31.31,0,0,0-.12-.37l-6.95-4.86a.33.33,0,0,0-.19-.06h-9.69V44.61h.11a.34.34,0,0,0,.34-.34v-.13a.32.32,0,0,0-.19-.3,18.77,18.77,0,0,1-4.55-3.24.3.3,0,0,0-.25-.12h-.81a1.52,1.52,0,0,0,0-2.85V36.1a.52.52,0,0,0-1,0v0h-.45a.51.51,0,0,0-.45.26.5.5,0,0,0,0,.5l0,.08,0,.07a.51.51,0,0,0,.44.78h.08a1.51,1.51,0,0,0,.33,2.66h-.81a.34.34,0,0,0-.26.12,18.77,18.77,0,0,1-4.55,3.24.33.33,0,0,0-.18.3v.13a.34.34,0,0,0,.34.34h.1v1.26h-9.68a.36.36,0,0,0-.2.06L170,50.79a.33.33,0,0,0-.13.37.35.35,0,0,0,.33.24h.08v5.21H134.77V36.9a.56.56,0,0,0-1.12,0v.86a1.7,1.7,0,0,0-1,.89.88.88,0,0,1-.86.5.64.64,0,0,0-.59.54,2.56,2.56,0,0,0,.07,1.28.48.48,0,0,0,.48.3,3.06,3.06,0,0,0,1-.29,8,8,0,0,1,.93-.34v16h-1.26V47.72a.34.34,0,0,0-.34-.34H111.11V45.32a.34.34,0,0,0-.34-.34H106V43.87a.34.34,0,0,0-.34-.34H79c-3.53-3.9-9-4.81-10.33-5A1.81,1.81,0,0,0,68,37.27c-.31-.18-.31-.33-.31-.62a.42.42,0,0,1,0-.16.51.51,0,0,0-.18-.65.59.59,0,0,1-.09-.11.54.54,0,0,0-1,0,.35.35,0,0,1-.09.11l-.08.07a.48.48,0,0,0-.12.5.31.31,0,0,0,0,.08v0a.35.35,0,0,1,0,.13c0,.29,0,.44-.3.62a1.79,1.79,0,0,0-.68,1.29c-1.31.16-6.8,1.08-10.32,5H28.22a.34.34,0,0,0-.34.34V45H23.75V42h.16a.34.34,0,0,0,.34-.33v-.24a.33.33,0,0,0-.22-.31,1.73,1.73,0,0,1-.88-.67,1.69,1.69,0,0,0-1-1V32.19a.48.48,0,0,0-.49-.48.47.47,0,0,0-.48.48v.56a2.66,2.66,0,0,0-1.19.7,2.14,2.14,0,0,1-1.38.91h0a.33.33,0,0,0-.33.29,4.32,4.32,0,0,0,0,1.23.51.51,0,0,0,.55.45A3.65,3.65,0,0,0,19.94,36a6.68,6.68,0,0,1,1.25-.4v3.77a1.6,1.6,0,0,0-1,1c-.11.3-.65.59-.89.68a.33.33,0,0,0-.21.31v.24a.34.34,0,0,0,.34.33h.16V56.61H9.46a.34.34,0,0,0-.34.33v2a.34.34,0,0,0,.05.17v8.42a.34.34,0,0,0,.34.33h.59a.34.34,0,0,0,.34-.33V67l1.93-2.79L14.3,67v.6a.34.34,0,0,0,.34.33h.59a.34.34,0,0,0,.34-.33V59.31H35.9v8.25a.34.34,0,0,0,.34.33h.59a.34.34,0,0,0,.34-.33V67l1.93-2.79L41,67v.6a.34.34,0,0,0,.34.33H42a.34.34,0,0,0,.34-.33V59.31H62.64v8.25a.34.34,0,0,0,.34.33h.58a.34.34,0,0,0,.34-.33V67l1.93-2.79L67.77,67v.6a.34.34,0,0,0,.34.33h.59a.34.34,0,0,0,.34-.33V59.31H89.37v8.25a.34.34,0,0,0,.34.33h.59a.34.34,0,0,0,.34-.33V67l1.93-2.79L94.5,67v.6a.34.34,0,0,0,.34.33h.59a.34.34,0,0,0,.34-.33V59.31H116.1v8.25a.34.34,0,0,0,.34.33H117a.34.34,0,0,0,.34-.33V67l1.93-2.79,1.94,2.8v.6a.34.34,0,0,0,.34.33h.58a.34.34,0,0,0,.34-.33V59.31h20.34v8.25a.34.34,0,0,0,.34.33h.58a.34.34,0,0,0,.34-.33V67L146,64.16,148,67v.6a.34.34,0,0,0,.34.33h.59a.34.34,0,0,0,.34-.33V59.31h20.33v8.25a.34.34,0,0,0,.34.33h.59a.34.34,0,0,0,.34-.33V67l1.93-2.79L174.7,67v.6a.34.34,0,0,0,.34.33h.59a.34.34,0,0,0,.34-.33V59.31H196.3v8.25a.34.34,0,0,0,.34.33h.59a.34.34,0,0,0,.34-.33V67l1.93-2.79,1.94,2.8v.6a.34.34,0,0,0,.34.33h.58a.34.34,0,0,0,.34-.33V59.31H223v8.25a.34.34,0,0,0,.34.33H224a.34.34,0,0,0,.34-.33V67l1.93-2.79,1.94,2.8v.6a.34.34,0,0,0,.34.33h.59a.34.34,0,0,0,.34-.33V59.31h20.33v8.25a.34.34,0,0,0,.34.33h.59a.34.34,0,0,0,.34-.33V67L253,64.16,254.9,67v.6a.34.34,0,0,0,.34.33h.59a.34.34,0,0,0,.34-.33V59.31H276.5v8.25a.34.34,0,0,0,.34.33h.59a.34.34,0,0,0,.34-.33V67l1.93-2.79,1.94,2.8v.6a.34.34,0,0,0,.34.33h.58a.34.34,0,0,0,.34-.33V59.31h20.34v8.25a.34.34,0,0,0,.34.33h.58a.34.34,0,0,0,.34-.33V67l1.93-2.79,1.94,2.8v.6a.34.34,0,0,0,.34.33h.59a.34.34,0,0,0,.34-.33V59.31H330v8.25a.34.34,0,0,0,.34.33h.59a.34.34,0,0,0,.34-.33V67l1.93-2.79L335.1,67v.6a.34.34,0,0,0,.34.33H336a.34.34,0,0,0,.34-.33V59.25a.33.33,0,0,0,.15-.28v-2A.34.34,0,0,0,336.27,56.62ZM336.18,59H336v8.59h-.59v-.7l-2.27-3.29-2.27,3.28v.71h-.59V59h-21v8.59h-.59v-.7l-2.28-3.29-2.27,3.28v.71h-.58V59h-21v8.59H282v-.7l-2.28-3.29-2.27,3.28v.71h-.59V59h-21v8.59h-.59v-.7L253,63.57l-2.27,3.28v.71h-.59V59h-21v8.59h-.59v-.7l-2.28-3.29L224,66.85v.71h-.58V59h-21v8.59h-.58v-.7l-2.28-3.29-2.27,3.28v.71h-.59V59h-21v8.59H175v-.7l-2.27-3.29-2.27,3.28v.71h-.59V59h-21v8.59h-.59v-.7L146,63.57l-2.27,3.28v.71h-.58V59h-21v8.59h-.58v-.7l-2.28-3.29L117,66.85v.71h-.59V59h-21v8.59h-.59v-.7l-2.27-3.29L90.3,66.85v.71h-.59V59h-21v8.59h-.59v-.7l-2.28-3.29-2.27,3.28v.71H63V59H42v8.59h-.58v-.7L39.1,63.57l-2.27,3.28v.71h-.59V59h-21v8.59h-.59v-.7l-2.27-3.29L10.1,66.85v.71H9.51V59h0v-2H19.94V41.63h-.5v-.24s.88-.34,1.08-.87a1.22,1.22,0,0,1,1-.87V35.26h-.11c-.83,0-2.1.73-2.61.73-.13,0-.2,0-.22-.15a5.18,5.18,0,0,1,0-1.14h0a2.43,2.43,0,0,0,1.64-1A2.71,2.71,0,0,1,21.53,33v-.81a.14.14,0,0,1,.14-.15.15.15,0,0,1,.15.15v7.46a1.25,1.25,0,0,1,1,.87c.2.53,1.08.87,1.08.87v.24h-.5v3.69h4.81V43.88H55.05c3.89-4.42,10.48-5,10.48-5s.06-1,.54-1.3a.87.87,0,0,0,.47-.91.8.8,0,0,0,0-.24.16.16,0,0,1,0-.09.14.14,0,0,1,0-.17l0,0c.2-.14.2-.36.38-.36s.19.22.39.36,0,.24,0,.54a.87.87,0,0,0,.48.91c.48.27.53,1.3.53,1.3s6.6.6,10.49,5h26.83v1.45h5.13v2.4h21.28v9.22H134V40.26c-.75,0-1.82.67-2.24.67a.16.16,0,0,1-.17-.09,2.44,2.44,0,0,1-.05-1.1.31.31,0,0,1,.28-.25,1.23,1.23,0,0,0,1.15-.71,1.46,1.46,0,0,1,1-.77V36.9a.22.22,0,1,1,.44,0v20h36.2V51.06h-.42l6.94-4.86h10V44.27h-.44v-.13a18.85,18.85,0,0,0,4.65-3.32h1.19v-.59a1.19,1.19,0,0,1-1-1.17,1.2,1.2,0,0,1,1-1.17v-.41h-.79a.21.21,0,0,1-.16-.08.19.19,0,0,1,0-.18l.15-.25-.15-.24a.17.17,0,0,1,.15-.27h.79V36.1a.17.17,0,0,1,.17-.18.18.18,0,0,1,.18.18v1.79a1.19,1.19,0,0,1,1,1.17,1.18,1.18,0,0,1-1,1.17v.59h1.19a18.85,18.85,0,0,0,4.65,3.32v.13h-.45V46.2h10l6.94,4.86h-.42v5.88H217V54h5.21V51.09h7.4v4.12h1.15V43.91a7,7,0,0,0-2.67,1.66,7.15,7.15,0,0,1-.36-1.73,1.73,1.73,0,0,0,1.33-1.29,2.75,2.75,0,0,1,1.7-1.27V40.16h.29V55.21h1v-3h-.21s10.92-13.61,27.05-13.61h2.73a30.12,30.12,0,0,1,9.65,1.63l.19-.09v-.21a.31.31,0,0,1,.61,0v.58a36.52,36.52,0,0,1,3.75,1.63v-.49l-1.09-.48h0l-.07-.06h0a.22.22,0,0,1-.05-.08h0a.11.11,0,0,1,0-.06s0,0,0,0,0,0,0,0a.25.25,0,0,1,0-.07h0s0,0,0,0,0,0,0-.05,0,0,.06,0l0,0,1.09-.49v-.21a.31.31,0,0,1,.61,0v2.52c1,.54,2,1.11,2.89,1.69a10.31,10.31,0,0,1,1.92.94l.42,0v-2l-.81-.36a.29.29,0,0,1-.18-.27.28.28,0,0,1,.18-.27l1-.44a.31.31,0,0,1,.13,0,.3.3,0,0,1,.16,0,.31.31,0,0,1,.14.25v3.11a17.36,17.36,0,0,1,6,1.72V45.56l-.81-.36a.31.31,0,0,1-.18-.28.29.29,0,0,1,.18-.27l1-.44.12,0a.24.24,0,0,1,.16.05.27.27,0,0,1,.14.24v2.75l.35.23a9.94,9.94,0,0,0,1.4.83v-6a6.92,6.92,0,0,0-2.87,1.37,2.28,2.28,0,0,1-.37-1.77,2.34,2.34,0,0,0,1.67-1,3.51,3.51,0,0,1,1.57-1.21V38.56H291v9.87l.63.27V44.54a.09.09,0,0,1,.08-.08h.56a.08.08,0,0,1,.08.08V49l1.11.35H295V48.4l-.81-.36a.29.29,0,0,1,0-.54l1-.44a.31.31,0,0,1,.13,0,.3.3,0,0,1,.16,0,.29.29,0,0,1,.14.25v2l.57-.07V44.54a.08.08,0,0,1,.08-.08h.55a.08.08,0,0,1,.08.08v4.58a13.82,13.82,0,0,0,2.54-.74l.32-7.46-.24-.58a0,0,0,0,1,0,0v-.7a.09.09,0,0,1,.08-.08h.23l.49-11.26a1,1,0,0,1-.56-.91,1,1,0,0,1,2.09,0,1,1,0,0,1-.55.91l.48,11.26H302a.09.09,0,0,1,.08.08v.7a0,0,0,0,1,0,0l-.24.58.15,3.46.14,0a.3.3,0,0,1,.13.26V47c.53-.29,1-.6,1.56-.9l.88-.52v-1a.08.08,0,0,1,.08-.08h.56a.09.09,0,0,1,.08.08v.62a17,17,0,0,1,2.88-1.34V41.65l-.82-.36a.31.31,0,0,1-.18-.28.3.3,0,0,1,.18-.27l1-.44.13,0a.24.24,0,0,1,.16,0,.27.27,0,0,1,.14.25v3.05a8.52,8.52,0,0,1,2.33-.33,25.86,25.86,0,0,0,3.7-.26V40.62l-.82-.36a.31.31,0,0,1-.17-.27.31.31,0,0,1,.17-.28l1-.44a.27.27,0,0,1,.12,0,.3.3,0,0,1,.16,0,.31.31,0,0,1,.15.26V43l.28-.05.06-.47.05.45c.92-.15,1.78-.34,2.63-.52.66-.14,1.3-.28,2-.39v0a.28.28,0,0,1,0-.13v0a.32.32,0,0,1,.25-.14h.15V40.08l-1.09-.48h0l-.07-.05h0a.59.59,0,0,1,0-.08s0,0,0,0a.13.13,0,0,1,0-.06.07.07,0,0,1,0-.05.09.09,0,0,1,0,0,.13.13,0,0,1,0-.06h0l0,0,0-.06.06,0,0,0,1.09-.48v-.22a.31.31,0,0,1,.61,0v3.27h3.75V40.08l-1.08-.48h0l-.07-.05h0a.16.16,0,0,1-.06-.08h0s0,0,0-.06v-.1s0,0,0-.06h0l0,0a.13.13,0,0,1,0-.06l.05,0,0,0,1.08-.48v-.22a.31.31,0,0,1,.31-.3.3.3,0,0,1,.29.3v3.27H326a.3.3,0,0,1,.3.3v4.82l.79.12v4.72l1.25-5.83V42l-.07-.09v-.18h.18s.3-1.87,1.83-1.92V37.9a.06.06,0,0,1,.06-.06.07.07,0,0,1,.07.06v.31l1,.36h0l0,0h0l-1,.36v.77c1.52,0,1.82,1.92,1.82,1.92h.18v.18l-.06.09v3.75l2,9.44v.21h.86v-.9h.68v2.43h.25Z"/><path class="cls-2" d="M335.44,66.34V60.28l-2.1,3Zm-.34-1.08-1.34-2,1.34-2Z"/><path class="cls-2" d="M315.5,48.72h.7V47.38h-.7Zm.33-1h0v.66h0Z"/><rect class="cls-2" x="330.96" y="42.43" width="0.47" height="0.86"/><path class="cls-2" d="M330.9,66.34l2.09-3-2.09-3Zm.34-5,1.34,1.94-1.34,1.94Z"/><rect class="cls-2" x="328.68" y="42.43" width="0.4" height="0.86"/><path class="cls-2" d="M304.16,66.34l2.1-3-2.1-3Zm.34-5,1.34,1.94-1.34,1.94Z"/><path class="cls-2" d="M308.71,66.34V60.28l-2.1,3Zm-.34-1.08-1.35-2,1.35-2Z"/><path class="cls-2" d="M304.66,51.12h-2.42l.2,4.53h2.22Zm-.34,4.19h-1.55l-.17-3.85h1.72Z"/><path class="cls-2" d="M304.16,59.77l2.27,3.28,2.28-3.28V59h-4.55Zm.34-.46h3.87v.35l-1.94,2.8-1.93-2.79Z"/><path class="cls-2" d="M304.66,46.27l-.57.34-1.87,1.08v2.25h2.44Zm-.34,3.33h-1.76V47.88c.52-.29,1.08-.61,1.7-1l.06,0Z"/><path class="cls-2" d="M308.26,49.55a8.78,8.78,0,0,1-.92.39h.92Z"/><path class="cls-2" d="M306.94,52.35h1.32V51.12h-2.88v4.53h1.56Zm-.34,0v3h-.88V51.46h2.2V52h-1A.34.34,0,0,0,306.6,52.35Z"/><path class="cls-2" d="M308.86,49.94h.33V49l-.33.24Z"/><path class="cls-2" d="M317.49,43.2c-.49.1-1,.19-1.53.28l0,.31Z"/><path class="cls-2" d="M308.86,44.25v4.2a2.35,2.35,0,0,0,.33-.3V44.54a.09.09,0,0,1,.08-.08h.56a.09.09,0,0,1,.08.08v2.82a18.25,18.25,0,0,1,5-3.1v-.62a27.52,27.52,0,0,1-3.7.26A8.21,8.21,0,0,0,308.86,44.25Zm5.69-.2a20,20,0,0,0-4.3,2.56V44.54a.41.41,0,0,0-.08-.24,7.09,7.09,0,0,1,1-.07,28.05,28.05,0,0,0,3.36-.21Z"/><path class="cls-2" d="M315.67,43.91l0-.39-.21,0V44l0,0Z"/><path class="cls-2" d="M315.5,53.68h.7V52.35h-.7Zm.33-1h0v.67h0Z"/><path class="cls-2" d="M309.91,48.25v4.1h3.17V45.84A11.61,11.61,0,0,0,309.91,48.25Zm.34.12a10.2,10.2,0,0,1,2.49-1.94V52h-2.49Z"/><rect class="cls-2" x="308.86" y="51.12" width="0.33" height="1.22"/><polygon class="cls-2" points="300.77 39.29 300.58 39.53 300.95 39.53 300.77 39.29"/><path class="cls-2" d="M255.24,66.34V60.28l-2.1,3Zm-.34-1.08-1.34-2,1.34-2Z"/><path class="cls-2" d="M259.37,56.1h1.87V51.8h-1.87Zm.34-4h1.19v3.62h-1.19Z"/><path class="cls-2" d="M264.61,56.1h1.87V51.8h-1.87Zm.34-4h1.19v3.63H265Z"/><path class="cls-2" d="M250.7,59.77,253,63.05l2.27-3.28V59H250.7Zm.34-.46h3.86v.35L253,62.46,251,59.67Z"/><path class="cls-2" d="M256.75,56.1h1.87V51.8h-1.87Zm.34-4h1.19v3.62h-1.19Z"/><path class="cls-2" d="M272.65,54h1.86V51.8h-1.86Zm.34-1.82h1.18v1.48H273Z"/><path class="cls-2" d="M254.13,56.1H256V51.8h-1.87Zm.34-4h1.19v3.62h-1.19Z"/><path class="cls-2" d="M277.43,59.77l2.27,3.28L282,59.77V59h-4.55Zm.34-.46h3.87v.35l-1.94,2.8-1.93-2.79Z"/><rect class="cls-2" x="275.42" y="51.8" width="0.08" height="2.15"/><path class="cls-2" d="M280.06,51.8h-1.87V54h1.87Zm-.34,1.81h-1.19V52.13h1.19Z"/><path class="cls-2" d="M282,66.34V60.28l-2.1,3Zm-.34-1.08-1.35-2,1.35-2Z"/><path class="cls-2" d="M277.43,66.34l2.09-3-2.09-3Zm.34-5,1.34,1.94-1.34,1.94Z"/><path class="cls-2" d="M281.71,51.8H281V54h.74Zm-.34,1.81h-.06V52.13h.06Z"/><rect class="cls-2" x="277" y="51.8" width="0.28" height="2.15"/><path class="cls-2" d="M262,56.1h1.87V51.8H262Zm.34-4h1.19v3.63h-1.19Z"/><path class="cls-2" d="M208.22,56.09h1.48v-3h-1.48Zm.34-2.61h.8v2.28h-.8Z"/><path class="cls-2" d="M250.7,66.34l2.09-3-2.09-3Zm.34-5,1.34,1.94L251,65.25Z"/><path class="cls-2" d="M224,66.34l2.1-3-2.1-3Zm.34-5,1.34,1.94-1.34,1.94Z"/><path class="cls-2" d="M205.91,56.09h1.48v-3h-1.48Zm.34-2.61h.8v2.28h-.8Z"/><polygon class="cls-2" points="300.43 32.2 300.39 32.95 300.67 32.55 300.43 32.2"/><path class="cls-2" d="M201.28,56.09h1.48v-3h-1.48Zm.34-2.61h.8v2.28h-.8Z"/><path class="cls-2" d="M203.59,56.09h1.48v-3h-1.48Zm.34-2.61h.8v2.28h-.8Z"/><path class="cls-2" d="M210.53,56.09H212v-3h-1.48Zm.34-2.61h.8v2.28h-.8Z"/><path class="cls-2" d="M240.54,54h1.87V51.8h-1.87Zm.34-1.81h1.19v1.47h-1.19Z"/><path class="cls-2" d="M243.32,54h1.87V51.8h-1.87Zm.34-1.81h1.19v1.47h-1.19Z"/><path class="cls-2" d="M246.09,54H248V51.8h-1.87Zm.34-1.81h1.19v1.47h-1.19Z"/><path class="cls-2" d="M224,59.77l2.27,3.29,2.28-3.29V59H224Zm.34-.46h3.87v.35l-1.94,2.8-1.93-2.79Z"/><path class="cls-2" d="M230.78,43.6v-2A2.76,2.76,0,0,0,230.78,43.6Z"/><path class="cls-2" d="M237.77,54h1.87V51.8h-1.87Zm.34-1.81h1.19v1.47h-1.19Z"/><path class="cls-2" d="M228.51,66.35V60.28l-2.1,3Zm-.34-1.09-1.35-2,1.35-2Z"/><polygon class="cls-2" points="301.02 30.16 301 29.78 300.87 29.96 301.02 30.16"/><polygon class="cls-2" points="300.91 28.43 300.63 28.43 300.77 28.67 300.91 28.43"/><polygon class="cls-2" points="300.97 29 300.95 28.66 300.86 28.82 300.97 29"/><polygon class="cls-2" points="301.35 37.84 301.31 36.9 300.88 37.35 301.35 37.84"/><polygon class="cls-2" points="301.29 36.31 301.25 35.41 300.87 35.84 301.29 36.31"/><polygon class="cls-2" points="301.14 32.95 301.11 32.2 300.86 32.55 301.14 32.95"/><polygon class="cls-2" points="301.21 34.71 301.17 33.71 300.86 34.18 301.21 34.71"/><polygon class="cls-2" points="301.07 31.45 301.05 30.88 300.86 31.15 301.07 31.45"/><polygon class="cls-2" points="300.49 30.88 300.46 31.45 300.67 31.15 300.49 30.88"/><polygon class="cls-2" points="300.58 28.66 300.57 29 300.67 28.82 300.58 28.66"/><polygon class="cls-2" points="301.04 30.61 301.03 30.44 300.77 30.09 300.5 30.44 300.5 30.61 300.77 31.01 301.04 30.61"/><polygon class="cls-2" points="301.1 31.93 301.09 31.75 300.77 31.29 300.45 31.75 300.44 31.93 300.77 32.41 301.1 31.93"/><polygon class="cls-2" points="300.99 29.53 300.98 29.34 300.77 28.98 300.55 29.34 300.54 29.53 300.77 29.83 300.99 29.53"/><polygon class="cls-2" points="300.53 29.78 300.51 30.16 300.67 29.96 300.53 29.78"/><path class="cls-2" d="M289,49c.54.08,1.12.14,1.75.19V49A12.17,12.17,0,0,1,289,48Zm.34-.44.32.19-.32,0Z"/><path class="cls-2" d="M291,49.09v.14l.4,0Z"/><path class="cls-2" d="M290.7,42V40A2.73,2.73,0,0,0,290.7,42Z"/><path class="cls-2" d="M291,54.61h.63V49.87l-.63,0Z"/><path class="cls-2" d="M289,54.61h1.75v-4.8c-.62-.05-1.21-.11-1.75-.19Zm.34-4.6,1.07.11v4.16h-1.07Z"/><path class="cls-2" d="M282.32,45.81l.21.18a10.26,10.26,0,0,0,5.82,2.93V47.56a15.86,15.86,0,0,0-6-1.79ZM288,47.75v.77a9.69,9.69,0,0,1-4.69-2.27A14.22,14.22,0,0,1,288,47.75Z"/><path class="cls-2" d="M293.34,49.93l-1,0v0h1Z"/><path class="cls-2" d="M288.35,51.74V49.52a12.33,12.33,0,0,1-3.14-1A37.49,37.49,0,0,1,288.35,51.74ZM288,49.8v1.06c-.35-.38-.81-.86-1.35-1.39A13.32,13.32,0,0,0,288,49.8Z"/><path class="cls-2" d="M296.16,49.93v-.09l-.33,0Z"/><polygon class="cls-2" points="300.92 41.06 300.62 41.06 300.77 41.25 300.92 41.06"/><polygon class="cls-2" points="300.87 41.38 301.54 42.24 301.49 41.06 301.12 41.06 300.87 41.38"/><path class="cls-2" d="M197.23,59.77l2.27,3.29,2.28-3.29V59h-4.55Zm.34-.46h3.87v.35l-1.94,2.8-1.93-2.79Z"/><rect class="cls-2" x="295.59" y="51.12" width="0.57" height="4.53"/><path class="cls-2" d="M295,56.16v-5h-2.64v3.49h1.56v1.83h1.34A.29.29,0,0,1,295,56.16Zm-.34,0h-.4v-1.5a.34.34,0,0,0-.34-.33h-1.22V51.46h2Z"/><polygon class="cls-2" points="301.15 39.53 301.42 39.53 301.38 38.46 300.87 39.15 301.15 39.53"/><text class="cls-3" transform="translate(5.59 26) scale(1.1 1)">Symp. Open Data and Knowledge</text></g></g></svg>